<svg width="45" height="23" viewBox="0 0 45 23" fill="none" xmlns="http://www.w3.org/2000/svg">
<path fill-rule="evenodd" clip-rule="evenodd" d="M38.8481 11.7129C39.0239 11.7129 39.1996 11.625 39.2875 11.4492L44.209 3.10027C44.2969 2.92451 44.2969 2.74874 44.209 2.57297C44.1211 2.3972 43.9453 2.30932 43.7696 2.30932H37.5298C37.3541 2.30932 37.1783 2.3972 37.0904 2.57297L34.1903 6.7035H25.5777L21.7987 0.551647C21.7108 0.37588 21.6229 0.287996 21.4471 0.287996C18.6348 -0.239306 15.8226 -0.0635387 12.9224 0.991065C10.6374 1.78202 8.44034 3.01239 6.15536 4.68218C2.46425 7.58234 0.179272 10.7462 0.0913887 10.9219C-0.0843773 11.0977 0.00350571 11.4492 0.267155 11.625C0.442924 11.8008 18.3712 12.5917 24.1715 12.6796L24.0836 12.7675C23.9957 12.8554 24.6109 12.7675 25.5777 12.7675C25.8413 12.7675 25.9292 12.6796 25.9292 12.6796C29.884 12.4159 38.4087 11.5371 38.5844 11.625C38.6723 11.7129 38.7602 11.7129 38.8481 11.7129Z" fill="#F9EAC7"/>
<path fill-rule="evenodd" clip-rule="evenodd" d="M24.9624 5.73678L21.7986 0.551647C21.7107 0.37588 21.6228 0.287996 21.4471 0.287996C18.6348 -0.239306 15.8225 -0.0635387 12.9223 0.991065C10.6374 1.78202 8.44027 3.01239 6.1553 4.68218C5.54011 5.20948 5.01281 5.6489 4.48551 6.1762C7.03413 6.79139 10.3737 7.14292 13.9769 7.14292C18.2832 7.14292 22.238 6.61562 24.9624 5.73678Z" fill="#00CCFF"/>
<path fill-rule="evenodd" clip-rule="evenodd" d="M10.989 22.1711H42.8029C44.0333 22.1711 45 21.2044 45 19.974V11.1856C45 10.922 44.7363 10.6583 44.4727 10.6583H0.530861C0.267212 10.6583 0.00355911 10.922 0.00355911 11.1856C0.00355911 17.2496 4.92505 22.1711 10.989 22.1711Z" fill="#5D5360"/>
<path fill-rule="evenodd" clip-rule="evenodd" d="M45 18.3921V11.1856C45 10.922 44.7363 10.6583 44.4727 10.6583H0.618744C0.267212 10.6583 0.00355911 10.922 0.00355911 11.1856V11.625C0.0914421 14.1737 1.23393 16.5465 2.90372 18.3921H45Z" fill="#FF8B5A"/>
</svg>
