<svg width="54" height="54" viewBox="0 0 54 54" fill="none" xmlns="http://www.w3.org/2000/svg">
<path d="M5.75724 52.7463C2.23935 49.1167 0.192591 44.3114 0.0129161 39.2599C-0.166759 34.2084 1.53342 29.2698 4.78455 25.3994C8.03568 21.529 12.6067 19.0019 17.6134 18.307C22.6201 17.6121 27.7065 18.7987 31.8889 21.6373L36.2687 25.6531C37.2731 26.8854 38.1301 28.2307 38.8222 29.6618L37.2969 50.0517C36.6415 51.0106 35.9057 51.912 35.0976 52.7463H5.75724Z" fill="#2D9739"/>
<path d="M38.8223 29.6618C38.1301 28.2307 37.2732 26.8853 36.2688 25.6531L31.889 21.6364L31.8117 21.584C29.2312 19.8633 26.199 18.9451 23.0973 18.9451C19.9957 18.9451 16.9635 19.8633 14.3829 21.584C11.901 23.2486 9.81465 25.4377 8.27117 27.9967C6.72768 30.5557 5.76467 33.4223 5.45011 36.3942C5.13555 39.3661 5.4771 42.3707 6.45066 45.1962C7.42421 48.0216 9.00605 50.599 11.0845 52.7463H35.0977C35.9058 51.912 36.6415 51.0105 37.297 50.0516L38.8223 29.6618Z" fill="#44BC59"/>
<path d="M37.7169 27.6738C37.2755 26.9715 36.792 26.2967 36.2688 25.653L34.3093 23.856C33.3661 24.5001 32.3433 25.0191 31.2666 25.4L27.3848 26.7229C27.1665 26.7992 26.9775 26.942 26.8444 27.1311C26.7113 27.3203 26.6407 27.5464 26.6426 27.7777V33.8773C26.6386 34.072 26.6871 34.2641 26.7829 34.4336C26.8788 34.6031 27.0185 34.7436 27.1874 34.8405C27.3563 34.9374 27.5482 34.9871 27.7429 34.9843C27.9376 34.9815 28.1279 34.9263 28.294 34.8246L32.1944 32.3866C34.2494 31.0855 36.1089 29.4987 37.7169 27.6738Z" fill="#2D9739"/>
<path d="M24.8668 14.5679H15.9881C15.0074 14.5679 14.2124 15.3629 14.2124 16.3436C14.2124 17.3243 15.0074 18.1193 15.9881 18.1193H24.8668C25.8475 18.1193 26.6425 17.3243 26.6425 16.3436C26.6425 15.3629 25.8475 14.5679 24.8668 14.5679Z" fill="#FFC239"/>
<path d="M20.4276 46.5309C26.3118 46.5309 31.082 41.7608 31.082 35.8766C31.082 29.9923 26.3118 25.2222 20.4276 25.2222C14.5433 25.2222 9.77319 29.9923 9.77319 35.8766C9.77319 41.7608 14.5433 46.5309 20.4276 46.5309Z" fill="#ABE4A3"/>
<path d="M20.4275 25.2222C18.3621 25.2205 16.3412 25.823 14.6138 26.9553C13.2742 29.0017 12.6801 31.4469 12.9313 33.8798C13.1826 36.3127 14.2638 38.5849 15.9933 40.3144C17.7227 42.0438 19.9949 43.1251 22.4278 43.3763C24.8607 43.6275 27.306 43.0334 29.3523 41.6939C30.4029 40.0868 30.9993 38.2255 31.0784 36.3072C31.1575 34.3888 30.7163 32.4848 29.8017 30.7967C28.887 29.1086 27.5329 27.6992 25.8826 26.7179C24.2324 25.7366 22.3475 25.2197 20.4275 25.2222Z" fill="#CDF8C8"/>
<path d="M15.9882 14.5682L13.52 10.1289C12.9118 8.65322 13.741 6.57739 15.1004 6.57739H25.7548C27.1141 6.57739 27.9433 8.65322 27.3351 10.1289L24.8669 14.5682H15.9882ZM20.4276 34.9891C20.0764 34.9891 19.733 34.8849 19.441 34.6898C19.149 34.4947 18.9214 34.2174 18.787 33.8929C18.6526 33.5684 18.6174 33.2114 18.6859 32.8669C18.7545 32.5225 18.9236 32.2061 19.1719 31.9577C19.4203 31.7094 19.7367 31.5403 20.0811 31.4717C20.4256 31.4032 20.7826 31.4384 21.1071 31.5728C21.4316 31.7072 21.7089 31.9348 21.904 32.2268C22.0991 32.5188 22.2033 32.8621 22.2033 33.2134H23.979C23.9761 32.4283 23.7131 31.6663 23.2312 31.0466C22.7493 30.4268 22.0756 29.9842 21.3154 29.788V28.774H19.5397V29.788C18.7037 30.0031 17.9749 30.5161 17.4902 31.2304C17.0055 31.9448 16.7982 32.8115 16.9071 33.6679C17.0161 34.5243 17.4339 35.3114 18.0821 35.8817C18.7303 36.4519 19.5643 36.7659 20.4276 36.7648C20.7788 36.7648 21.1221 36.869 21.4141 37.0641C21.7061 37.2592 21.9337 37.5365 22.0681 37.861C22.2025 38.1855 22.2377 38.5425 22.1692 38.887C22.1007 39.2314 21.9315 39.5478 21.6832 39.7962C21.4348 40.0445 21.1184 40.2136 20.774 40.2822C20.4295 40.3507 20.0725 40.3155 19.748 40.1811C19.4235 40.0467 19.1462 39.8191 18.9511 39.5271C18.756 39.2351 18.6518 38.8918 18.6518 38.5405H16.8761C16.879 39.3256 17.142 40.0876 17.6239 40.7073C18.1059 41.3271 18.7796 41.7697 19.5397 41.9659V42.9799H21.3154V41.9659C22.1515 41.7508 22.8802 41.2378 23.3649 40.5235C23.8496 39.8091 24.057 38.9424 23.948 38.086C23.839 37.2296 23.4212 36.4425 22.773 35.8722C22.1248 35.302 21.2908 34.988 20.4276 34.9891Z" fill="#2D9739"/>
<path d="M0.0065918 51.8582H53.2785V53.634H0.0065918V51.8582ZM31.0819 35.8766H34.6333V50.0825H31.0819V35.8766ZM37.2969 29.6616H40.8484V50.0825H37.2969V29.6616ZM43.512 23.4465H47.0635V50.0825H43.512V23.4465Z" fill="#FFC239"/>
<path d="M30.7516 33.2881C30.1518 30.8953 28.7395 28.7851 26.7562 27.3181C26.6865 27.4616 26.6486 27.6185 26.6452 27.778V33.8777C26.6413 34.0723 26.6898 34.2645 26.7856 34.434C26.8815 34.6035 27.0212 34.744 27.1901 34.8409C27.359 34.9378 27.5509 34.9875 27.7456 34.9847C27.9403 34.9819 28.1306 34.9267 28.2967 34.825L30.7516 33.2881Z" fill="#ABE4A3"/>
<path d="M49.7269 18.1196H53.2784V50.0828H49.7269V18.1196ZM24.8667 39.4284H28.4182V50.0828H24.8667V39.4284Z" fill="#FFC239"/>
<path d="M15.9881 14.5679C15.6845 14.5697 15.3865 14.6501 15.1233 14.8014C15.1797 15.2268 15.3883 15.6175 15.7106 15.901C16.0328 16.1845 16.4468 16.3417 16.8759 16.3436H25.7546C26.0582 16.3418 26.3561 16.2613 26.6194 16.1101C26.5629 15.6846 26.3543 15.294 26.0321 15.0105C25.7099 14.727 25.2959 14.5697 24.8667 14.5679H15.9881Z" fill="#FFD55D"/>
<path d="M27.3351 10.1289C27.9432 8.65325 27.114 6.57742 25.7547 6.57742H16.5537C16.3403 6.57308 16.1289 6.62045 15.9378 6.71551C15.7466 6.81056 15.5813 6.95047 15.4559 7.12328C15.3306 7.2961 15.2489 7.49668 15.2179 7.70791C15.1869 7.91914 15.2074 8.13473 15.2778 8.33628L15.2849 8.35315L16.5999 10.7184C16.9498 11.3476 17.4616 11.8717 18.0824 12.2364C18.7031 12.6011 19.4101 12.7931 20.13 12.7925H25.8541L27.3351 10.1289Z" fill="#44BC59"/>
<path d="M26.6426 39.4284V47.4192C26.6426 47.8901 26.8297 48.3418 27.1627 48.6748C27.4957 49.0078 27.9474 49.1949 28.4183 49.1949V39.4284H26.6426ZM32.8576 35.8769V47.4192C32.8576 47.8901 33.0447 48.3418 33.3777 48.6748C33.7107 49.0078 34.1624 49.1949 34.6334 49.1949V35.8769H32.8576ZM39.0727 29.6619V47.4192C39.0727 47.8901 39.2598 48.3418 39.5928 48.6748C39.9258 49.0078 40.3775 49.1949 40.8484 49.1949V29.6619H39.0727ZM45.2878 23.4468V47.4192C45.2878 47.8901 45.4748 48.3418 45.8078 48.6748C46.1409 49.0078 46.5925 49.1949 47.0635 49.1949V23.4468H45.2878ZM51.5028 18.1196V47.4192C51.5028 47.8901 51.6899 48.3418 52.0229 48.6748C52.3559 49.0078 52.8076 49.1949 53.2785 49.1949V18.1196H51.5028Z" fill="#FFD55D"/>
<path d="M51.0633 10.3675C51.1067 10.5197 51.1087 10.6808 51.0689 10.834C51.0292 10.9872 50.9492 11.127 50.8373 11.2389C50.7254 11.3508 50.5856 11.4308 50.4324 11.4705C50.2792 11.5103 50.1181 11.5083 49.9659 11.4649L45.2877 10.1287C43.0503 17.5663 38.6873 24.798 32.1944 28.8555L28.294 31.2936C28.1279 31.3953 27.9376 31.4504 27.7429 31.4532C27.5482 31.456 27.3563 31.4064 27.1874 31.3095C27.0185 31.2126 26.8788 31.072 26.7829 30.9026C26.6871 30.7331 26.6386 30.5409 26.6426 30.3462V24.2457C26.6411 24.0147 26.7118 23.7891 26.8449 23.6003C26.978 23.4115 27.1668 23.269 27.3848 23.1927L31.2666 21.8698C36.4606 20.1003 41.5507 14.7314 42.6241 9.2408L38.6651 7.26174C38.526 7.19219 38.4075 7.08728 38.3216 6.95753C38.2358 6.82777 38.1855 6.67773 38.1759 6.52244C38.1663 6.36715 38.1976 6.21205 38.2668 6.07269C38.336 5.93333 38.4406 5.8146 38.5701 5.7284L46.9383 0.149052C47.0546 0.0715543 47.1875 0.022597 47.3263 0.00616218C47.465 -0.0102727 47.6057 0.00627916 47.7369 0.0544713C47.868 0.102664 47.986 0.181135 48.0811 0.283504C48.1762 0.385872 48.2458 0.509247 48.2843 0.643593L51.0633 10.3675Z" fill="#F3A606"/>
<path d="M28.294 28.9922L32.1944 26.5542C38.2256 22.7852 42.419 16.2762 44.779 9.40771C44.9282 8.98193 45.235 8.62956 45.6362 8.42311C46.0373 8.21666 46.5024 8.17184 46.9356 8.29788L49.9659 9.16355C50.0871 9.19861 50.2146 9.20692 50.3393 9.18791C50.4641 9.1689 50.5833 9.12302 50.6886 9.05345L48.2843 0.643593C48.2458 0.509247 48.1762 0.385872 48.0811 0.283504C47.986 0.181135 47.868 0.102664 47.7369 0.0544713C47.6057 0.00627916 47.465 -0.0102727 47.3262 0.00616218C47.1875 0.022597 47.0545 0.0715543 46.9383 0.149052L38.5701 5.7284C38.4406 5.8146 38.336 5.93333 38.2668 6.07269C38.1976 6.21205 38.1663 6.36715 38.1759 6.52244C38.1855 6.67773 38.2358 6.82777 38.3216 6.95752C38.4075 7.08728 38.5259 7.19219 38.6651 7.26174L42.6241 9.24079C41.5507 14.7314 36.4606 20.1003 31.2665 21.8707L27.3848 23.1936C27.1669 23.2698 26.9782 23.4122 26.8452 23.6008C26.7121 23.7894 26.6413 24.0149 26.6425 24.2457V28.0458C26.6387 28.2404 26.6873 28.4324 26.7833 28.6018C26.8792 28.7711 27.0189 28.9116 27.1878 29.0084C27.3567 29.1051 27.5485 29.1547 27.7431 29.1519C27.9377 29.149 28.128 29.0939 28.294 28.9922Z" fill="#FFC239"/>
</svg>
