<svg width="55" height="47" viewBox="0 0 55 47" fill="none" xmlns="http://www.w3.org/2000/svg">
<path d="M1.4502 10.0439H17.0264V44.9561H1.4502V10.0439Z" fill="#FF5F7B"/>
<path d="M0 8.43262H17.0264V11.6553H0V8.43262Z" fill="#5F7883"/>
<path d="M37.9736 10.0439H53.5498V44.9561H37.9736V10.0439Z" fill="#EA344A"/>
<path d="M37.9736 8.43262H55V11.6553H37.9736V8.43262Z" fill="#4B5055"/>
<path d="M8.43262 15.4153H11.6553V18.6379H8.43262V15.4153ZM8.43262 22.3977H11.6553V25.6204H8.43262V22.3977ZM8.43262 29.3801H11.6553V32.6028H8.43262V29.3801ZM8.43262 36.3625H11.6553V39.5852H8.43262V36.3625Z" fill="#F0F7FF"/>
<path d="M39.585 5.6227V44.9563H15.415V5.6227L27.5 0.000244141L39.585 5.6227Z" fill="#FFE987"/>
<path d="M39.585 5.6227V44.9563H27.5V0.000244141L39.585 5.6227Z" fill="#FECB6E"/>
<path d="M43.3447 15.4153H46.5674V18.6379H43.3447V15.4153ZM43.3447 22.3977H46.5674V25.6204H43.3447V22.3977ZM43.3447 29.3801H46.5674V32.6028H43.3447V29.3801ZM43.3447 36.3625H46.5674V39.5852H43.3447V36.3625Z" fill="#D7E9FC"/>
<path d="M29.3799 15.4153H32.6025V18.6379H29.3799V15.4153ZM29.3799 22.3977H32.6025V25.6204H29.3799V22.3977ZM29.3799 29.3801H32.6025V32.6028H29.3799V29.3801Z" fill="#4B5055"/>
<path d="M22.3975 15.4153H25.6201V18.6379H22.3975V15.4153Z" fill="#5F7883"/>
<path d="M29.3799 8.43262H32.6025V11.6553H29.3799V8.43262Z" fill="#4B5055"/>
<path d="M22.3975 8.43262H25.6201V11.6553H22.3975V8.43262ZM22.3975 22.3975H25.6201V25.6201H22.3975V22.3975ZM22.3975 29.3799H25.6201V32.6025H22.3975V29.3799ZM22.3975 36.3623H32.6025V44.9561H22.3975V36.3623Z" fill="#5F7883"/>
<path d="M27.5 36.3625H32.6025V44.9563H27.5V36.3625Z" fill="#4B5055"/>
<path d="M0 43.3445H55V46.5671H0V43.3445Z" fill="#BDE760"/>
<path d="M27.5 43.3445H55V46.5671H27.5V43.3445Z" fill="#00D880"/>
</svg>
