<svg width="35" height="56" viewBox="0 0 35 56" fill="none" xmlns="http://www.w3.org/2000/svg">
<path d="M5.18137 34.9458H0.873701C0.641981 34.9458 0.419752 34.8538 0.255901 34.6899C0.0920505 34.5261 0 34.3038 0 34.0721V28.8322C0 28.6005 0.0920505 28.3782 0.255901 28.2144C0.419752 28.0505 0.641981 27.9585 0.873701 27.9585H5.18137V34.9458Z" fill="#9A9AA8"/>
<path d="M13.5594 55.9169H11.5936C11.3908 55.9169 11.1964 55.8364 11.053 55.693C10.9096 55.5496 10.8291 55.3552 10.8291 55.1524V49.7749H14.3239V55.1524C14.3239 55.3552 14.2434 55.5496 14.1 55.693C13.9566 55.8364 13.7622 55.9169 13.5594 55.9169ZM26.8213 55.9169H24.8555C24.6527 55.9169 24.4583 55.8364 24.3149 55.693C24.1715 55.5496 24.091 55.3552 24.091 55.1524V49.7749H27.5858V55.1524C27.5858 55.3552 27.5053 55.5496 27.3619 55.693C27.2185 55.8364 27.0241 55.9169 26.8213 55.9169Z" fill="#E6E6E6"/>
<path d="M14.9622 50.6827H12.8298L11.1421 48.0596L12.8836 45.4365H15.7267V49.9182C15.7267 50.1209 15.6462 50.3154 15.5028 50.4587C15.3594 50.6021 15.165 50.6827 14.9622 50.6827Z" fill="#E26762"/>
<path d="M9.4541 45.4363V49.918C9.4541 50.1208 9.53465 50.3152 9.67802 50.4586C9.82139 50.602 10.0158 50.6825 10.2186 50.6825H12.8294V45.4363H9.4541Z" fill="#CA5752"/>
<path d="M28.2243 50.6827H26.0918L24.4639 48.0596L26.1058 45.4365H28.9887V49.9182C28.9887 50.0186 28.9689 50.118 28.9305 50.2107C28.8921 50.3035 28.8358 50.3878 28.7648 50.4588C28.6939 50.5298 28.6096 50.5861 28.5168 50.6245C28.4241 50.6629 28.3247 50.6827 28.2243 50.6827Z" fill="#5BA3F2"/>
<path d="M22.7163 45.4363V49.918C22.7163 50.1208 22.7969 50.3152 22.9402 50.4586C23.0836 50.602 23.278 50.6825 23.4808 50.6825H26.0916V45.4363H22.7163Z" fill="#3C91DD"/>
<path d="M29.9931 47.1878H11.8248C11.2917 47.1878 9.144 46.8135 9.03555 46.2914L8.49561 43.6907L10.53 41.9353H29.6634L31.6346 43.6907L31.0946 46.2914C31.0421 46.5447 30.9039 46.7721 30.7032 46.9354C30.5026 47.0987 30.2518 47.1878 29.9931 47.1878Z" fill="#9A9AA8"/>
<path d="M10.7234 46.2914L10.1834 43.6907L12.2178 41.9353H8.84252L6.80811 43.6907L7.34805 46.2914C7.40063 46.5446 7.53889 46.7721 7.73955 46.9354C7.9402 47.0986 8.19099 47.1878 8.44968 47.1878H11.825C11.5663 47.1878 11.3155 47.0986 11.1149 46.9353C10.9142 46.7721 10.776 46.5446 10.7234 46.2914Z" fill="#7E7E89"/>
<path d="M33.8228 43.6907H6.80793C6.18651 43.6907 4.61865 43.187 4.61865 42.5656V1.12511C4.61865 0.503688 6.18651 0 6.80793 0H33.8228C34.4442 0 34.9479 0.503688 34.9479 1.12511V2.65103L33.7549 3.4948L34.9479 4.33869V39.3521L33.7549 40.2714L34.9479 41.0398V42.5657C34.9479 43.187 34.4442 43.6907 33.8228 43.6907Z" fill="#E6E6E6"/>
<path d="M24.4636 12.2317C24.4636 15.1269 22.1166 17.4739 19.2214 17.4739C16.3261 17.4739 15.7266 15.1269 15.7266 12.2317C15.7266 9.33648 16.3261 6.9895 19.2214 6.9895C22.1166 6.9895 24.4636 9.33648 24.4636 12.2317Z" fill="#5BA3F2"/>
<path d="M17.3543 12.2317C17.3543 9.92721 18.842 7.97143 20.9089 7.26876C20.3654 7.08373 19.7953 6.98939 19.2212 6.9895C16.326 6.9895 13.979 9.33648 13.979 12.2317C13.979 15.1269 16.326 17.4739 19.2212 17.4739C19.8119 17.4739 20.3791 17.3747 20.9089 17.1947C18.842 16.492 17.3543 14.5362 17.3543 12.2317Z" fill="#3C91DD"/>
<path d="M19.2217 36.6954C17.7741 36.6954 16.6006 35.5219 16.6006 34.0743V27.0847C16.6006 25.6371 17.7741 24.4636 19.2217 24.4636C20.6693 24.4636 21.8428 25.6371 21.8428 27.0847V34.0743C21.8428 35.5219 20.6693 36.6954 19.2217 36.6954Z" fill="#9A9AA8"/>
<path d="M20.6129 13.9587C21.4554 13.9587 21.778 12.8539 21.0656 12.4021L19.6732 11.5192C19.1154 11.1655 18.3774 11.565 18.3774 12.231C18.3773 12.3734 18.4131 12.5135 18.4817 12.6382C18.5502 12.763 18.6493 12.8684 18.7695 12.9445L20.1619 13.8274C20.2967 13.9132 20.4531 13.9587 20.6129 13.9587ZM19.2214 27.8584C18.7522 27.8584 18.3774 28.2413 18.3774 28.7022C18.3774 29.1638 18.7529 29.5459 19.2212 29.5459C19.6858 29.5459 20.065 29.1686 20.065 28.7022C20.0651 28.2416 19.6911 27.8584 19.2214 27.8584ZM19.0571 31.6297C18.6394 31.7169 18.3776 32.0755 18.3776 32.4567C18.3776 32.9182 18.7518 33.3004 19.2213 33.3004C19.6903 33.3004 20.0651 32.9203 20.0651 32.4567C20.0651 31.9208 19.5735 31.5275 19.0571 31.6297Z" fill="#DAEBFB"/>
<path d="M34.9479 4.33869V2.65103H7.63444C7.43169 2.65103 7.23724 2.57048 7.09387 2.42711C6.9505 2.28374 6.86995 2.08929 6.86995 1.88654V1.12511C6.86995 0.503688 7.37364 0 7.99506 0H4.61974C3.99832 0 3.49463 0.503688 3.49463 1.12511V42.5656C3.49463 43.187 3.99832 43.6907 4.61974 43.6907H7.99506C7.37364 43.6907 6.86995 43.187 6.86995 42.5656V41.8042C6.86995 41.6014 6.9505 41.407 7.09387 41.2636C7.23724 41.1202 7.43169 41.0397 7.63444 41.0397H34.9479V39.352H7.63444C7.43169 39.352 7.23724 39.2715 7.09387 39.1281C6.9505 38.9847 6.86995 38.7903 6.86995 38.5875V5.10318C6.86995 4.90042 6.9505 4.70597 7.09387 4.5626C7.23724 4.41923 7.43169 4.33869 7.63444 4.33869H34.9479Z" fill="#CCCCCC"/>
</svg>
