<svg width="58" height="60" viewBox="0 0 58 60" fill="none" xmlns="http://www.w3.org/2000/svg">
<path fill-rule="evenodd" clip-rule="evenodd" d="M22.9432 12.3968C22.5597 12.3968 22.2512 12.0883 22.2512 11.7048V9.15369C22.2512 8.32834 21.576 7.65305 20.7506 7.65305H18.3829C17.9994 7.65305 17.691 7.34458 17.691 6.96108C17.691 6.57758 17.9994 6.26912 18.3829 6.26912H20.7506C22.343 6.26912 23.6352 7.56134 23.6352 9.15369V11.7048C23.6352 12.0883 23.3267 12.3968 22.9432 12.3968ZM35.0568 12.3968C34.6733 12.3968 34.3648 12.0883 34.3648 11.7048V9.15369C34.3648 7.56134 35.657 6.26912 37.2494 6.26912H39.6171C40.0006 6.26912 40.309 6.57758 40.309 6.96108C40.309 7.34458 40.0006 7.65305 39.6171 7.65305H37.2494C36.424 7.65305 35.7571 8.32834 35.7571 9.15369V11.7048C35.7571 12.0883 35.4403 12.3968 35.0568 12.3968ZM29.0042 11.3713C28.6207 11.3713 28.3039 11.0628 28.3039 10.6794V4.41832C28.3039 4.03482 28.6207 3.71802 29.0042 3.71802C29.3877 3.71802 29.6961 4.03482 29.6961 4.41832V10.6794C29.6961 11.0628 29.3877 11.3713 29.0042 11.3713ZM48.8544 23.6433H46.3033C45.9198 23.6433 45.6113 23.3265 45.6113 22.943C45.6113 22.5595 45.9198 22.251 46.3033 22.251H48.8544C49.6797 22.251 50.355 21.5841 50.355 20.7587V18.391C50.355 18.0075 50.6635 17.699 51.047 17.699C51.4305 17.699 51.739 18.0075 51.739 18.391V20.7587C51.739 22.351 50.4467 23.6433 48.8544 23.6433ZM53.5898 29.7042H47.3287C46.9452 29.7042 46.6368 29.3874 46.6368 29.0039C46.6368 28.6204 46.9452 28.312 47.3287 28.312H53.5898C53.9733 28.312 54.2901 28.6204 54.2901 29.0039C54.2901 29.3874 53.9733 29.7042 53.5898 29.7042ZM38.1498 51.7471H37.2494C35.657 51.7471 34.3648 50.4548 34.3648 48.8625V46.3114C34.3648 45.9279 34.6733 45.6111 35.0568 45.6111C35.4403 45.6111 35.7571 45.9279 35.7571 46.3114V48.8625C35.7571 49.6878 36.424 50.3548 37.2494 50.3548H38.1498C38.5333 50.3548 38.8501 50.6716 38.8501 51.0551C38.8501 51.4386 38.5333 51.7471 38.1498 51.7471ZM20.7506 51.7471H18.3829C17.9994 51.7471 17.691 51.4386 17.691 51.0551C17.691 50.6716 17.9994 50.3548 18.3829 50.3548H20.7506C21.576 50.3548 22.2512 49.6878 22.2512 48.8625V46.3114C22.2512 45.9279 22.5597 45.6111 22.9432 45.6111C23.3267 45.6111 23.6352 45.9279 23.6352 46.3114V48.8625C23.6352 50.4548 22.343 51.7471 20.7506 51.7471ZM29.0042 54.2898C28.6207 54.2898 28.3039 53.9813 28.3039 53.5979V47.3368C28.3039 46.9533 28.6207 46.6365 29.0042 46.6365C29.3877 46.6365 29.6961 46.9533 29.6961 47.3368V53.5979C29.6961 53.9813 29.3877 54.2898 29.0042 54.2898ZM6.95299 40.3171C6.56949 40.3171 6.26102 40.0087 6.26102 39.6252V37.2575C6.26102 35.6651 7.55325 34.3729 9.1456 34.3729H11.6967C12.0802 34.3729 12.3887 34.6814 12.3887 35.0649C12.3887 35.4484 12.0802 35.7568 11.6967 35.7568H9.1456C8.32025 35.7568 7.64495 36.4321 7.64495 37.2575V39.6252C7.64495 40.0087 7.33649 40.3171 6.95299 40.3171ZM11.6967 23.6433H9.1456C7.55325 23.6433 6.26102 22.351 6.26102 20.7587V18.391C6.26102 18.0075 6.56949 17.699 6.95299 17.699C7.33649 17.699 7.64495 18.0075 7.64495 18.391V20.7587C7.64495 21.5841 8.32025 22.251 9.1456 22.251H11.6967C12.0802 22.251 12.3887 22.5595 12.3887 22.943C12.3887 23.3265 12.0802 23.6433 11.6967 23.6433ZM10.6713 29.7042H4.41023C4.02673 29.7042 3.71826 29.3874 3.71826 29.0039C3.71826 28.6204 4.02673 28.312 4.41023 28.312H10.6713C11.0548 28.312 11.3632 28.6204 11.3632 29.0039C11.3632 29.3874 11.0548 29.7042 10.6713 29.7042Z" fill="#C2E6F7"/>
<path fill-rule="evenodd" clip-rule="evenodd" d="M29.0041 48.0287C18.5079 48.0287 9.97925 39.5001 9.97925 29.0039C9.97925 18.516 18.5079 9.979 29.0041 9.979C41.1677 9.979 50.1632 21.2755 47.5871 33.0723C47.4871 33.5308 46.9869 33.7559 46.5784 33.5392L37.7829 44.9024C38.0914 45.2359 37.9913 45.7778 37.5828 45.9862C34.9067 47.3451 32.0221 48.0287 29.0041 48.0287Z" fill="#2882B0"/>
<path fill-rule="evenodd" clip-rule="evenodd" d="M16.5238 5.79395C15.8819 5.79395 15.365 6.31917 15.365 6.96112C15.365 7.60306 15.8819 8.11995 16.5238 8.11995C17.1658 8.11995 17.691 7.60306 17.691 6.96112C17.691 6.31917 17.1658 5.79395 16.5238 5.79395Z" fill="black"/>
<path fill-rule="evenodd" clip-rule="evenodd" d="M16.5238 9.51236C15.1148 9.51236 13.9727 8.3702 13.9727 6.96126C13.9727 5.55232 15.1148 4.41016 16.5238 4.41016C17.9327 4.41016 19.0832 5.55232 19.0832 6.96126C19.0832 8.3702 17.9327 9.51236 16.5238 9.51236Z" fill="#2882B0"/>
<path fill-rule="evenodd" clip-rule="evenodd" d="M41.4761 9.51236C40.0672 9.51236 38.925 8.3702 38.925 6.96126C38.925 5.55232 40.0672 4.41016 41.4761 4.41016C42.8851 4.41016 44.0272 5.55232 44.0272 6.96126C44.0272 8.3702 42.8851 9.51236 41.4761 9.51236Z" fill="#A3D14A"/>
<path fill-rule="evenodd" clip-rule="evenodd" d="M29.0043 5.11054C27.5953 5.11054 26.4448 3.96838 26.4448 2.55944C26.4448 1.1505 27.5953 0 29.0043 0C30.4049 0 31.5554 1.1505 31.5554 2.55944C31.5554 3.96838 30.4049 5.11054 29.0043 5.11054Z" fill="#FFCC00"/>
<path fill-rule="evenodd" clip-rule="evenodd" d="M51.0469 19.0829C49.638 19.0829 48.4958 17.9408 48.4958 16.5318C48.4958 15.1229 49.638 13.9807 51.0469 13.9807C52.4559 13.9807 53.598 15.1229 53.598 16.5318C53.598 17.9408 52.4559 19.0829 51.0469 19.0829Z" fill="#80B4FB"/>
<path fill-rule="evenodd" clip-rule="evenodd" d="M55.449 31.5637C54.0401 31.5637 52.8979 30.4132 52.8979 29.0042C52.8979 27.5953 54.0401 26.4531 55.449 26.4531C56.858 26.4531 58.0001 27.5953 58.0001 29.0042C58.0001 30.4132 56.858 31.5637 55.449 31.5637Z" fill="#A3D14A"/>
<path fill-rule="evenodd" clip-rule="evenodd" d="M16.5238 53.6064C15.1148 53.6064 13.9727 52.4559 13.9727 51.0553C13.9727 49.6463 15.1148 48.4958 16.5238 48.4958C17.9327 48.4958 19.0832 49.6463 19.0832 51.0553C19.0832 52.4559 17.9327 53.6064 16.5238 53.6064Z" fill="#2882B0"/>
<path fill-rule="evenodd" clip-rule="evenodd" d="M29.0044 58.0083C27.5954 58.0083 26.4449 56.8661 26.4449 55.4572C26.4449 54.0482 27.5954 52.9061 29.0044 52.9061C30.405 52.9061 31.5555 54.0482 31.5555 55.4572C31.5555 56.8661 30.405 58.0083 29.0044 58.0083ZM6.9532 44.0356C5.54426 44.0356 4.4021 42.8851 4.4021 41.4845C4.4021 40.0755 5.54426 38.925 6.9532 38.925C8.36214 38.925 9.5043 40.0755 9.5043 41.4845C9.5043 42.8851 8.36214 44.0356 6.9532 44.0356Z" fill="#FFCC00"/>
<path fill-rule="evenodd" clip-rule="evenodd" d="M6.9532 19.0829C5.54426 19.0829 4.4021 17.9408 4.4021 16.5318C4.4021 15.1229 5.54426 13.9807 6.9532 13.9807C8.36214 13.9807 9.5043 15.1229 9.5043 16.5318C9.5043 17.9408 8.36214 19.0829 6.9532 19.0829Z" fill="#80B4FB"/>
<path fill-rule="evenodd" clip-rule="evenodd" d="M2.5511 31.5637C1.14216 31.5637 0 30.4132 0 29.0042C0 27.5953 1.14216 26.4531 2.5511 26.4531C3.96004 26.4531 5.1022 27.5953 5.1022 29.0042C5.1022 30.4132 3.96004 31.5637 2.5511 31.5637Z" fill="#A3D14A"/>
<path fill-rule="evenodd" clip-rule="evenodd" d="M36.2906 26.336C35.9071 26.336 35.5986 26.0192 35.5986 25.6357V23.8766C35.5986 20.3334 32.9558 17.4572 29.7127 17.4572H28.2955C25.0441 17.4572 22.4096 20.3334 22.4096 23.8766V25.6357C22.4096 26.0192 22.0928 26.336 21.7093 26.336C21.3258 26.336 21.0173 26.0192 21.0173 25.6357V23.8766C21.0173 19.5665 24.2854 16.0649 28.2955 16.0649H29.7127C33.7228 16.0649 36.9825 19.5748 36.9825 23.8766V25.6357C36.9825 26.0192 36.6741 26.336 36.2906 26.336Z" fill="#4A5254"/>
<path fill-rule="evenodd" clip-rule="evenodd" d="M30.6049 41.9428H27.3952C22.96 41.9428 19.3501 38.3413 19.3501 33.906V27.3199C19.3501 26.011 20.4172 24.9438 21.7261 24.9438H36.2657C37.583 24.9438 38.6501 26.011 38.6501 27.3199V33.906C38.6501 38.3413 35.0402 41.9428 30.6049 41.9428Z" fill="#FFB800"/>
<path fill-rule="evenodd" clip-rule="evenodd" d="M29.0042 34.8565C27.4785 34.8565 26.2363 33.6226 26.2363 32.097C26.2363 30.5713 27.4785 29.3291 29.0042 29.3291C30.5215 29.3291 31.7637 30.5713 31.7637 32.097C31.7637 33.6226 30.5215 34.8565 29.0042 34.8565Z" fill="#4A5254"/>
<path fill-rule="evenodd" clip-rule="evenodd" d="M29.0043 37.5578C28.6208 37.5578 28.304 37.2493 28.304 36.8658V34.1646C28.304 33.7811 28.6208 33.4727 29.0043 33.4727C29.3878 33.4727 29.6962 33.7811 29.6962 34.1646V36.8658C29.6962 37.2493 29.3878 37.5578 29.0043 37.5578Z" fill="#4A5254"/>
<path fill-rule="evenodd" clip-rule="evenodd" d="M46.9202 59.3003C46.8452 59.3003 46.7785 59.292 46.7118 59.267C43.9606 58.4583 41.4095 56.7826 39.5337 54.5566C37.6079 52.289 36.5491 49.6295 36.5491 47.0701V38.6998C36.5491 38.408 36.7241 38.1496 36.9909 38.0328C40.0339 36.7406 44.1023 34.5813 46.42 32.4054C46.7035 32.1386 47.137 32.1386 47.4204 32.4054C49.7381 34.5813 53.8065 36.7406 56.8495 38.0328C57.1163 38.1496 57.2913 38.408 57.2913 38.6998V47.0701C57.2913 52.6141 52.4226 57.758 47.1286 59.267C47.0536 59.292 46.9869 59.3003 46.9202 59.3003Z" fill="#335F8C"/>
<path fill-rule="evenodd" clip-rule="evenodd" d="M46.92 55.9905C46.8367 55.9905 46.7616 55.9822 46.6866 55.9572C42.8183 54.69 39.2917 50.9383 39.2917 46.8783V40.6506C39.2917 40.3671 39.4585 40.1087 39.7169 39.992C41.2926 39.2917 44.2522 37.841 46.4532 36.0403C46.7283 35.8235 47.1118 35.8235 47.3786 36.0403C49.5795 37.841 52.5475 39.2917 54.1148 39.992C54.3732 40.1087 54.5483 40.3671 54.5483 40.6506V46.8783C54.5483 50.9467 51.0385 54.6649 47.1451 55.9572C47.0701 55.9822 46.9951 55.9905 46.92 55.9905Z" fill="#5684B9"/>
<path fill-rule="evenodd" clip-rule="evenodd" d="M44.4025 49.4463C44.094 49.4463 43.8106 49.2378 43.7105 48.9377L42.7684 45.9614C42.6517 45.5779 42.8601 45.1694 43.2436 45.0527C43.6271 44.9276 44.0273 45.1444 44.1524 45.5196L44.7776 47.4954L50.1299 43.2519C50.4467 43.0018 50.8969 43.0602 51.147 43.3686C51.3972 43.6854 51.3471 44.144 51.0303 44.3857L44.861 49.2879C44.7276 49.3879 44.5692 49.4463 44.4025 49.4463Z" fill="white"/>
</svg>
