<svg width="48" height="45" viewBox="0 0 48 45" fill="none" xmlns="http://www.w3.org/2000/svg">
<path d="M14.8965 3.37927H33.1034V44.7586H14.8965V3.37927Z" fill="#FDBD40"/>
<path d="M21.5171 34.8275H26.4826V44.7585H21.5171V34.8275Z" fill="#5A6470"/>
<path d="M0 21.5863H14.8966V43.1035H0V21.5863Z" fill="#A7C6D3"/>
<path d="M1.65527 11.6552H11.5863V21.5862H1.65527V11.6552Z" fill="#CFDFE8"/>
<path d="M3.31055 5.86206H9.93124V11.6552H3.31055V5.86206Z" fill="#A7C6D3"/>
<path d="M5.79297 0.0689697H7.44814V5.86207H5.79297V0.0689697Z" fill="#5A6470"/>
<path d="M33.1035 21.5863H48.0001V43.1035H33.1035V21.5863Z" fill="#E9686A"/>
<path d="M46.3446 21.5862H36.4136V5.86206L46.3446 9.17241V21.5862Z" fill="#F98C96"/>
<path d="M38.8967 10.8276H40.5519V21.5862H38.8967V10.8276ZM42.207 10.8276H43.8622V21.5862H42.207V10.8276ZM2.48291 24.069H12.4139V25.7242H2.48291V24.069ZM2.48291 27.3793H12.4139V29.0345H2.48291V27.3793ZM2.48291 30.6897H12.4139V32.3448H2.48291V30.6897ZM2.48291 34H12.4139V35.6552H2.48291V34ZM19.0346 8.34485H22.345V11.6552H19.0346V8.34485ZM25.6553 8.34485H28.9657V11.6552H25.6553V8.34485ZM19.0346 14.9655H22.345V18.2759H19.0346V14.9655ZM25.6553 14.9655H28.9657V18.2759H25.6553V14.9655ZM19.0346 21.5862H22.345V24.8966H19.0346V21.5862ZM25.6553 21.5862H28.9657V24.8966H25.6553V21.5862ZM19.0346 28.2069H22.345V31.5173H19.0346V28.2069ZM25.6553 28.2069H28.9657V31.5173H25.6553V28.2069ZM38.0691 38.1379H43.0346V43.1035H38.0691V38.1379ZM35.5864 24.069H37.2415V25.7242H35.5864V24.069ZM38.8967 24.069H42.207V25.7242H38.8967V24.069ZM43.8622 24.069H45.5174V25.7242H43.8622V24.069ZM35.5864 27.3793H37.2415V29.0345H35.5864V27.3793ZM38.8967 27.3793H42.207V29.0345H38.8967V27.3793ZM43.8622 27.3793H45.5174V29.0345H43.8622V27.3793ZM35.5864 30.6897H37.2415V32.3448H35.5864V30.6897ZM38.8967 30.6897H42.207V32.3448H38.8967V30.6897ZM43.8622 30.6897H45.5174V32.3448H43.8622V30.6897ZM35.5864 34H37.2415V35.6552H35.5864V34ZM38.8967 34H42.207V35.6552H38.8967V34ZM43.8622 34H45.5174V35.6552H43.8622V34Z" fill="#5A6470"/>
</svg>
