<svg width="15" height="15" viewBox="0 0 15 15" fill="none" xmlns="http://www.w3.org/2000/svg">
<path d="M13.7695 10.3994L11.7921 8.42194C11.0858 7.7157 9.88521 7.99822 9.60271 8.91631C9.39084 9.55195 8.68459 9.90508 8.04897 9.7638C6.63649 9.41068 4.72964 7.57445 4.37652 6.09134C4.16464 5.45569 4.58839 4.74945 5.22401 4.53761C6.14212 4.25511 6.42462 3.0545 5.71838 2.34826L3.7409 0.370777C3.1759 -0.123592 2.32841 -0.123592 1.83405 0.370777L0.492185 1.71264C-0.849675 3.12512 0.633434 6.86821 3.95277 10.1875C7.27211 13.5069 11.0152 15.0606 12.4277 13.6481L13.7695 12.3063C14.2639 11.7413 14.2639 10.8938 13.7695 10.3994Z" fill="#EB562C"/>
</svg>
