<svg width="47" height="52" viewBox="0 0 47 52" fill="none" xmlns="http://www.w3.org/2000/svg">
<path d="M44.9458 38.2383C44.9458 44.9973 39.4665 50.4766 32.7075 50.4766C25.9485 50.4766 20.4692 44.9973 20.4692 38.2383C20.4692 31.4793 25.9485 26 32.7075 26C39.4665 26 44.9458 31.4793 44.9458 38.2383Z" fill="#FEF4F5"/>
<path d="M32.7075 26V50.4766C39.4665 50.4766 44.9458 44.9973 44.9458 38.2383C44.9458 31.4793 39.4665 26 32.7075 26Z" fill="#D5EDED"/>
<path d="M8.23096 8.15884C4.01693 8.15884 0.588379 11.5874 0.588379 15.8014V17.8414C0.588379 18.6824 1.27037 19.3648 2.11182 19.3648H14.3501C15.1915 19.3648 15.8735 18.6824 15.8735 17.8414V15.8014C15.8735 11.5874 12.445 8.15884 8.23096 8.15884Z" fill="#00CD77"/>
<path d="M8.23096 8.15884V19.3648H14.3501C15.1915 19.3648 15.8735 18.6824 15.8735 17.8414V15.8014C15.8735 11.5874 12.445 8.15884 8.23096 8.15884Z" fill="#009E4E"/>
<path d="M8.23096 32.6357C4.01693 32.6357 0.588379 36.0639 0.588379 40.2779V42.3175C0.588379 43.1589 1.27037 43.8409 2.11182 43.8409H14.3501C15.1915 43.8409 15.8735 43.1589 15.8735 42.3175V40.2779C15.8735 36.0639 12.445 32.6357 8.23096 32.6357Z" fill="#FF4949"/>
<path d="M14.3501 43.8409C15.1915 43.8409 15.8735 43.1589 15.8735 42.3175V40.2779C15.8735 36.0639 12.445 32.6357 8.23096 32.6357V43.8409H14.3501Z" fill="#E80048"/>
<path d="M32.7075 8.15884C28.4935 8.15884 25.0649 11.5874 25.0649 15.8014V17.8414C25.0649 18.6824 25.7469 19.3648 26.5884 19.3648H38.8267C39.6681 19.3648 40.3501 18.6824 40.3501 17.8414V15.8014C40.3501 11.5874 36.9216 8.15884 32.7075 8.15884Z" fill="#FF8398"/>
<path d="M40.3501 17.8414V15.8014C40.3501 11.5874 36.9216 8.15884 32.7075 8.15884V19.3648H38.8267C39.6681 19.3648 40.3501 18.6824 40.3501 17.8414Z" fill="#FF3F5C"/>
<path d="M32.7075 40.794C28.4935 40.794 25.0649 44.2225 25.0649 48.4366V48.8392C25.0649 49.6803 25.7469 50.3627 26.5884 50.3627H38.8267C39.2306 50.3627 39.6181 50.2024 39.9037 49.9163C40.0452 49.7749 40.1575 49.607 40.234 49.4222C40.3106 49.2374 40.3501 49.0394 40.3501 48.8394V48.4367C40.3501 44.2226 36.9216 40.7941 32.7075 40.7941V40.794Z" fill="#FFD400"/>
<path d="M38.8267 50.3626C39.2306 50.3626 39.6181 50.2023 39.9037 49.9162C40.0452 49.7748 40.1575 49.6069 40.234 49.4221C40.3106 49.2373 40.3501 49.0393 40.3501 48.8392V48.4366C40.3501 44.2225 36.9216 40.794 32.7075 40.794V50.3627L38.8267 50.3626Z" fill="#FF9F04"/>
<path d="M8.23094 0C5.14161 0 2.62794 2.51327 2.62794 5.603C2.62794 8.69233 5.14161 11.2056 8.23094 11.2056C11.3203 11.2056 13.8339 8.69233 13.8339 5.603C13.8339 2.51327 11.3203 0 8.23094 0Z" fill="#C86E59"/>
<path d="M8.23094 24.4766C5.14161 24.4766 2.62794 26.9898 2.62794 30.0792C2.62794 33.1689 5.14161 35.6826 8.23094 35.6826C11.3203 35.6826 13.8339 33.1689 13.8339 30.0792C13.8339 26.9898 11.3203 24.4766 8.23094 24.4766Z" fill="#FDD1A3"/>
<path d="M32.7076 0C29.6182 0 27.105 2.51327 27.105 5.603C27.105 8.69233 29.6182 11.2056 32.7076 11.2056C35.7969 11.2056 38.3101 8.69233 38.3101 5.603C38.3101 2.51327 35.7969 0 32.7076 0Z" fill="#FFCDBE"/>
<path d="M32.7076 32.6357C29.6182 32.6357 27.105 35.149 27.105 38.2383C27.105 41.3276 29.6182 43.8409 32.7076 43.8409C35.7969 43.8409 38.3101 41.3276 38.3101 38.2383C38.3101 35.149 35.7969 32.6357 32.7076 32.6357Z" fill="#C86E59"/>
<path d="M43.4513 46.8274C45.3385 44.4717 46.4692 41.4847 46.4692 38.2383C46.4692 30.65 40.2958 24.4766 32.7075 24.4766C25.1193 24.4766 18.9458 30.65 18.9458 38.2383C18.9458 45.8265 25.1193 52 32.7075 52C35.954 52 38.9409 50.8693 41.2967 48.9821L43.8687 51.5536C44.01 51.6954 44.1778 51.8078 44.3627 51.8844C44.5475 51.961 44.7457 52.0003 44.9458 52C45.3354 52 45.7254 51.8512 46.0229 51.5536C46.6176 50.959 46.6176 49.9941 46.0229 49.3995L43.4513 46.8274ZM21.9927 38.2383C21.9927 32.3302 26.7994 27.5234 32.7075 27.5234C38.6156 27.5234 43.4224 32.3302 43.4224 38.2383C43.4224 44.1464 38.6156 48.9531 32.7075 48.9531C26.7994 48.9531 21.9927 44.1464 21.9927 38.2383Z" fill="#008ADF"/>
<path d="M43.4513 46.8274C45.3385 44.4717 46.4692 41.4847 46.4692 38.2383C46.4692 30.65 40.2958 24.4766 32.7075 24.4766V27.5234C38.6156 27.5234 43.4224 32.3302 43.4224 38.2383C43.4224 44.1464 38.6156 48.9531 32.7075 48.9531V52C35.954 52 38.9409 50.8693 41.2967 48.9821L43.8687 51.5536C44.01 51.6954 44.1778 51.8078 44.3627 51.8844C44.5475 51.961 44.7457 52.0003 44.9458 52C45.3354 52 45.7254 51.8512 46.0229 51.5536C46.6176 50.959 46.6176 49.9941 46.0229 49.3995L43.4513 46.8274Z" fill="#0065A3"/>
<path d="M13.834 5.603C13.834 2.51327 11.3207 0 8.23096 0V11.2056C11.3207 11.2056 13.834 8.69233 13.834 5.603Z" fill="#A34F3E"/>
<path d="M13.834 30.0792C13.834 26.9898 11.3207 24.4766 8.23096 24.4766V35.6826C11.3207 35.6826 13.834 33.1689 13.834 30.0792Z" fill="#F5A86C"/>
<path d="M38.3101 5.603C38.3101 2.51327 35.7968 0 32.7075 0V11.2056C35.7968 11.2056 38.3101 8.69233 38.3101 5.603Z" fill="#FFBEAA"/>
<path d="M32.7075 32.6357V43.8409C35.7968 43.8409 38.3101 41.3276 38.3101 38.2383C38.3101 35.149 35.7968 32.6357 32.7075 32.6357Z" fill="#A34F3E"/>
</svg>
