<svg width="16" height="12" viewBox="0 0 16 12" fill="none" xmlns="http://www.w3.org/2000/svg">
<path d="M15.1807 1.72128L10.6922 6.18091L15.1807 10.6405C15.2619 10.4709 15.3111 10.2835 15.3111 10.0833V2.27856C15.3111 2.07833 15.2619 1.89087 15.1807 1.72128ZM14.0103 0.977783H1.81189C1.61166 0.977783 1.4242 1.02701 1.25461 1.10815L6.99143 6.81606C7.49867 7.32331 8.32354 7.32331 8.83079 6.81606L14.5676 1.10815C14.398 1.02701 14.2106 0.977783 14.0103 0.977783ZM0.641476 1.72128C0.560336 1.89087 0.511108 2.07833 0.511108 2.27856V10.0833C0.511108 10.2835 0.560336 10.471 0.641476 10.6405L5.13001 6.18091L0.641476 1.72128Z" fill="#EB562C"/>
<path d="M10.079 6.79395L9.44389 7.4291C8.5987 8.27429 7.22343 8.27429 6.37824 7.4291L5.74311 6.79395L1.25458 11.2536C1.42417 11.3347 1.61163 11.3839 1.81186 11.3839H14.0103C14.2105 11.3839 14.398 11.3347 14.5676 11.2536L10.079 6.79395Z" fill="#EB562C"/>
</svg>
