<svg width="47" height="41" viewBox="0 0 47 41" fill="none" xmlns="http://www.w3.org/2000/svg">
<path d="M31.9922 1.88C40.5638 5.26498 46.6278 13.6241 46.6278 23.3982C41.8818 23.3982 36.9047 22.3005 31.9893 21.4917L31.9922 21.4761V1.88Z" fill="#4689D3"/>
<path d="M31.9924 1.87989V21.476L31.9895 21.4916C29.1196 21.0197 26.2702 20.6456 23.5001 20.6456C20.6116 20.6456 17.7994 21.0138 15.0088 21.4799L15.0078 21.476V1.87989C20.4662 -0.26514 26.5341 -0.26514 31.9924 1.87989Z" fill="#5FA8ED"/>
<path d="M15.0077 21.4761L15.0087 21.48C10.1657 22.2907 5.3854 23.3982 0.37207 23.3982C0.37207 13.6241 6.43605 5.26498 15.0077 1.88V21.4761Z" fill="#4689D3"/>
<path d="M45.2013 32.3976H1.79873C1.32168 32.3976 0.864163 32.5871 0.526836 32.9244C0.189509 33.2617 0 33.7193 0 34.1963C0 34.6734 0.189509 35.1309 0.526836 35.4682C0.864163 35.8055 1.32168 35.995 1.79873 35.995H45.2013C45.6783 35.995 46.1358 35.8055 46.4732 35.4682C46.8105 35.1309 47 34.6734 47 34.1963C47 33.7193 46.8105 33.2617 46.4732 32.9244C46.1358 32.5871 45.6783 32.3976 45.2013 32.3976Z" fill="#CCD3DF"/>
<path d="M42.9239 32.3977C43.2215 32.9505 43.3772 33.5686 43.3772 34.1964C43.3772 34.8242 43.2215 35.4423 42.9239 35.9951C41.5325 38.7172 37.1801 40.7088 33.1998 40.7088C29.2194 40.7088 26.8577 38.7172 26.1586 35.9951C25.8635 34.8141 25.8635 33.5787 26.1586 32.3977C26.8577 29.6756 29.2194 27.684 33.1998 27.684C37.1801 27.684 41.5325 29.6756 42.9239 32.3977ZM20.8417 32.3977C21.1368 33.5787 21.1368 34.8141 20.8417 35.9951C20.1426 38.7172 17.7808 40.7088 13.8005 40.7088C9.8202 40.7088 5.4678 38.7172 4.07641 35.9951C3.77882 35.4423 3.62305 34.8242 3.62305 34.1964C3.62305 33.5686 3.77882 32.9505 4.07641 32.3977C5.4678 29.6756 9.8202 27.684 13.8005 27.684C17.7808 27.684 20.1426 29.6756 20.8417 32.3977Z" fill="#6ADDC7"/>
<path d="M15.0077 3.28912V1.88C6.43605 5.26498 0.37207 13.6241 0.37207 23.3982C1.35995 23.3982 2.33873 23.3547 3.31075 23.2794C3.33005 19.213 4.42161 15.2236 6.47529 11.7138C8.52897 8.20404 11.4721 5.29806 15.0077 3.28912Z" fill="#3776AF"/>
<path d="M7.01391 35.9951C6.71632 35.4422 6.56055 34.8242 6.56055 34.1963C6.56055 33.5685 6.71632 32.9505 7.01391 32.3976C8.23032 30.0182 11.7098 28.1965 15.2253 27.7759C14.753 27.7135 14.277 27.6827 13.8005 27.6838C9.8202 27.6838 5.4678 29.6754 4.07641 32.3975C3.77882 32.9504 3.62305 33.5684 3.62305 34.1962C3.62305 34.8241 3.77882 35.4421 4.07641 35.995C5.4678 38.7171 9.8202 40.7087 13.8005 40.7087C14.277 40.7098 14.753 40.679 15.2253 40.6165C11.7098 40.1962 8.23032 38.3748 7.01391 35.9951Z" fill="#54B5A3"/>
<path d="M17.9453 1.88003C20.1903 0.994958 22.5604 0.468266 24.9689 0.319234C24.4831 0.288684 23.9936 0.271744 23.5001 0.271744C20.5933 0.268367 17.712 0.814195 15.0078 1.88051V3.28914C15.9525 2.75067 16.9341 2.27979 17.9453 1.88003Z" fill="#4F8EC1"/>
<path d="M3.8493 17.5386C3.75639 17.5386 3.6648 17.5166 3.58205 17.4743C3.4993 17.4321 3.42776 17.3708 3.37328 17.2955C3.31881 17.2202 3.28297 17.1331 3.26869 17.0413C3.25442 16.9495 3.26212 16.8556 3.29117 16.7674C4.22234 13.9299 5.74409 11.3219 7.75617 9.11519C7.80779 9.05719 7.87039 9.01 7.94036 8.97634C8.01033 8.94268 8.08628 8.92323 8.16381 8.9191C8.24134 8.91497 8.31892 8.92625 8.39207 8.95229C8.46521 8.97833 8.53247 9.01861 8.58996 9.0708C8.64744 9.12299 8.69401 9.18606 8.72697 9.25636C8.75993 9.32666 8.77863 9.40279 8.78199 9.48036C8.78535 9.55793 8.7733 9.6354 8.74653 9.70828C8.71977 9.78116 8.67882 9.84802 8.62607 9.90498C6.72502 11.9898 5.28718 14.4537 4.40723 17.1345C4.36861 17.252 4.29389 17.3543 4.19371 17.4269C4.09353 17.4994 3.973 17.5385 3.8493 17.5386ZM9.9073 8.41352C9.7877 8.4136 9.67091 8.37717 9.57256 8.3091C9.47422 8.24103 9.39898 8.14456 9.35693 8.03259C9.31487 7.92062 9.30799 7.79848 9.33721 7.6825C9.36643 7.56652 9.43035 7.46221 9.52044 7.38353C9.88116 7.06845 10.2523 6.76545 10.6332 6.47506C10.7571 6.38062 10.9135 6.33929 11.0679 6.36015C11.2223 6.38101 11.3621 6.46236 11.4565 6.58629C11.551 6.71023 11.5923 6.86661 11.5715 7.02102C11.5506 7.17544 11.4692 7.31524 11.3453 7.40968C10.9853 7.68411 10.6345 7.97051 10.2937 8.2684C10.1868 8.36208 10.0494 8.41365 9.9073 8.41352Z" fill="#F4F8FC"/>
</svg>
