<svg width="46" height="46" viewBox="0 0 46 46" fill="none" xmlns="http://www.w3.org/2000/svg">
<g clip-path="url(#clip0_2004_204)">
<path d="M36.4766 35.2188C33.5036 35.2188 31.0859 32.8011 31.0859 29.8281C31.0859 26.8552 33.5036 24.3477 36.4766 24.3477C39.4495 24.3477 41.8672 26.8552 41.8672 29.8281C41.8672 32.8011 39.4495 35.2188 36.4766 35.2188Z" fill="#F6A96C"/>
<path d="M36.4766 35.2188C34.4249 35.2188 32.5402 35.8908 30.9922 37.003L29.0132 41.4734L32.4336 46H46V44.6523C46 39.4425 41.6864 35.2188 36.4766 35.2188Z" fill="#32DDF9"/>
<path d="M6.82812 11.3846L2.65354 13.5664L3.44596 8.78043L0 5.50742L4.77789 4.83359L6.82812 0L8.92858 4.83359L13.5664 5.50742L10.2103 8.78043L11.0027 13.5664L6.82812 11.3846ZM26.3691 8.76857L27.1777 13.5664L23 11.3832L18.8223 13.5664L19.6309 8.76857L16.2617 5.50742L20.9516 4.83359L23 0L25.1025 4.83359L29.7383 5.50742L26.3691 8.76857Z" fill="#FFDA2D"/>
<path d="M39.1719 11.3846L34.9973 13.5664L35.7897 8.78043L32.4336 5.50742L37.1216 4.83359L39.1719 0L41.2723 4.83359L46 5.50742L42.554 8.78043L43.3465 13.5664L39.1719 11.3846Z" fill="#FDBF00"/>
<path d="M9.52344 35.2188C6.55051 35.2188 4.13281 32.8011 4.13281 29.8281C4.13281 26.8552 6.55051 24.3477 9.52344 24.3477C12.4964 24.3477 14.9141 26.8552 14.9141 29.8281C14.9141 32.8011 12.4964 35.2188 9.52344 35.2188Z" fill="#FFBD86"/>
<path d="M9.52344 35.2188C4.31358 35.2188 0 39.4425 0 44.6523V46H13.5664L16.9095 41.957L15.0078 37.0033C13.4598 35.8908 11.5751 35.2188 9.52344 35.2188Z" fill="#84ECF7"/>
<path d="M27.1777 13.5664L23 11.3832V0L25.1025 4.83359L29.7383 5.50742L26.3691 8.76857L27.1777 13.5664Z" fill="#FDBF00"/>
<path d="M23 21.6523C20.0352 21.6523 17.6094 24.0781 17.6094 27.043C17.6094 30.0078 20.0352 32.5234 23 32.5234C25.9648 32.5234 28.3906 30.0078 28.3906 27.043C28.3906 24.0781 25.9648 21.6523 23 21.6523Z" fill="#FED2A4"/>
<path d="M32.4336 41.957V46H13.5664V41.957C13.5664 40.1244 14.1055 38.4531 14.9951 36.9977C16.666 34.3292 19.6309 32.5234 23 32.5234C26.3691 32.5234 29.334 34.3291 31.0049 36.9977C31.8945 38.4531 32.4336 40.1245 32.4336 41.957Z" fill="#FF637B"/>
<path d="M23 32.5234V21.6523C25.9648 21.6523 28.3906 24.0781 28.3906 27.043C28.3906 30.0078 25.9648 32.5234 23 32.5234Z" fill="#F6A96C"/>
<path d="M32.4336 41.957V46H23V32.5234C26.3691 32.5234 29.334 34.3291 31.0049 36.9977C31.8945 38.4531 32.4336 40.1245 32.4336 41.957Z" fill="#E63950"/>
</g>
<defs>
<clipPath id="clip0_2004_204">
<rect width="46" height="46" fill="white"/>
</clipPath>
</defs>
</svg>
