<svg width="18" height="24" viewBox="0 0 18 24" fill="none" xmlns="http://www.w3.org/2000/svg">
<path d="M6.63662 15.118C7.17446 14.9782 7.5431 14.4924 7.57679 13.8785C7.61085 13.2533 7.26967 12.697 6.73807 12.4984L5.67569 12.0656C1.81786 10.4743 1.80179 10.4743 1.54871 10.4712C1.13192 10.4496 0.745656 10.6678 0.498861 11.0552C0.498481 11.056 0.498083 11.0568 0.497667 11.0576C0.023678 11.8136 -0.0711199 13.8538 0.0447951 14.9781C0.0988735 15.4697 0.187015 15.8255 0.312341 16.0621C0.522686 16.4644 0.899169 16.7128 1.31164 16.7265C1.33868 16.728 1.36297 16.7296 1.38845 16.7296C1.61174 16.7296 1.9447 16.6242 5.13698 15.5979C6.21625 15.2535 6.53356 15.1521 6.63662 15.118ZM8.49621 15.8907C7.91604 15.6667 7.28262 15.8163 6.92611 16.2578C6.92569 16.2578 6.25935 17.0507 6.1916 17.1287C6.18847 17.1322 6.18531 17.1357 6.18218 17.1396C3.48272 20.3076 3.47565 20.3284 3.39104 20.5725C3.32953 20.7378 3.308 20.9141 3.32719 21.0724C3.34991 21.3105 3.44902 21.5373 3.62375 21.7489C4.25015 22.4971 6.86657 23.4976 8.07663 23.4976C8.17142 23.4976 8.25759 23.4913 8.33361 23.4784C8.78451 23.395 9.12647 23.1215 9.27145 22.7283C9.27186 22.7259 9.27264 22.7239 9.27342 22.722C9.35647 22.485 9.36115 22.4705 9.37097 18.7423C9.37097 18.7423 9.37919 17.2545 9.38116 17.1742C9.41527 16.6151 9.06776 16.1109 8.49621 15.8907ZM17.5594 16.5143C17.3573 16.3631 17.3495 16.3577 13.8046 15.1942C13.8046 15.1942 12.4496 14.7464 12.3203 14.7002L12.3172 14.699C11.7958 14.4965 11.2097 14.6739 10.8254 15.1479C10.4302 15.6302 10.3796 16.282 10.6934 16.7603L11.2916 17.7346C13.4716 21.2755 13.4971 21.2959 13.6961 21.451C13.899 21.6096 14.1399 21.6904 14.393 21.6904C14.5552 21.6904 14.7221 21.6574 14.8878 21.59C15.8687 21.1987 17.836 18.697 17.9853 17.6507C18.0503 17.1968 17.8987 16.785 17.5594 16.5143ZM11.7635 13.4994C11.7898 13.5051 11.8168 13.5078 11.8437 13.5076C11.8913 13.5077 11.9384 13.499 11.9828 13.4821C12.1544 13.4171 12.5128 13.3297 13.0828 13.1946C13.0832 13.1946 13.0836 13.1946 13.0844 13.1942C17.1166 12.2176 17.144 12.2 17.3645 12.057C17.7073 11.8259 17.8898 11.4357 17.8675 10.9864C17.8678 10.9634 17.867 10.9404 17.8652 10.9174C17.7512 9.83268 16.004 7.25506 15.0717 6.79906C14.6572 6.60125 14.2173 6.62278 13.8706 6.85585C13.6575 6.99412 13.6575 6.99412 11.4477 10.0164C11.4477 10.0164 10.5581 11.2265 10.5158 11.2829C10.1612 11.7154 10.1475 12.3257 10.4809 12.8381C10.781 13.2969 11.2765 13.548 11.7635 13.4994ZM8.92182 0.89029C8.80586 0.467625 8.47643 0.158901 8.0169 0.0429397C6.90279 -0.231262 2.99207 0.866005 2.20114 1.68039C1.88736 2.00826 1.76277 2.43763 1.86739 2.82779C1.87368 2.8513 1.88227 2.87361 1.89246 2.89555C2.00254 3.12435 5.58617 8.76535 6.67913 10.4836C7.13746 11.2278 7.64046 11.6016 8.17441 11.6016C8.30134 11.6016 8.42942 11.5804 8.55911 11.5385C9.24505 11.3316 9.56667 10.6845 9.51457 9.61504C9.45613 8.2679 8.99587 1.30396 8.92182 0.89029Z" fill="white"/>
</svg>
