<svg width="51" height="52" viewBox="0 0 51 52" fill="none" xmlns="http://www.w3.org/2000/svg">
<path fill-rule="evenodd" clip-rule="evenodd" d="M24.1268 51.1158V15.4513L16.7203 12.2852L4.32886 17.5821V51.1158H24.1268Z" fill="#909CD1"/>
<path fill-rule="evenodd" clip-rule="evenodd" d="M16.7202 51.1158H24.1267V15.4513L16.7202 12.2852V51.1158Z" fill="#7986BF"/>
<path fill-rule="evenodd" clip-rule="evenodd" d="M46.671 51.1157H22.8716V5.08685L34.7713 0L46.671 5.08685V51.1157Z" fill="#AEAED6"/>
<path fill-rule="evenodd" clip-rule="evenodd" d="M34.7713 51.1157H22.8716V5.08685L34.7713 0V51.1157Z" fill="#D1D1F0"/>
<path fill-rule="evenodd" clip-rule="evenodd" d="M43.0701 8.01059C43.0701 7.84458 43.136 7.68538 43.2534 7.568C43.3708 7.45062 43.53 7.38468 43.696 7.38468C43.862 7.38468 44.0212 7.45062 44.1386 7.568C44.256 7.68538 44.3219 7.84458 44.3219 8.01059V45.2743C44.3219 45.4403 44.256 45.5995 44.1386 45.7169C44.0212 45.8343 43.862 45.9002 43.696 45.9002C43.53 45.9002 43.3708 45.8343 43.2534 45.7169C43.136 45.5995 43.0701 45.4403 43.0701 45.2743V8.01059ZM37.1202 5.46722C37.1202 5.30121 37.1862 5.14201 37.3035 5.02463C37.4209 4.90725 37.5801 4.84131 37.7461 4.84131C37.9121 4.84131 38.0713 4.90725 38.1887 5.02463C38.3061 5.14201 38.372 5.30121 38.372 5.46722V45.2743C38.372 45.4403 38.3061 45.5995 38.1887 45.7169C38.0713 45.8343 37.9121 45.9002 37.7461 45.9002C37.5801 45.9002 37.4209 45.8343 37.3035 45.7169C37.1862 45.5995 37.1202 45.4403 37.1202 45.2743V5.46722ZM40.0952 6.73885C40.0952 6.57285 40.1611 6.41365 40.2785 6.29627C40.3959 6.17889 40.5551 6.11294 40.7211 6.11294C40.8871 6.11294 41.0463 6.17889 41.1636 6.29627C41.281 6.41365 41.347 6.57285 41.347 6.73885V45.2743C41.347 45.4403 41.281 45.5995 41.1636 45.7169C41.0463 45.8343 40.8871 45.9002 40.7211 45.9002C40.5551 45.9002 40.3959 45.8343 40.2785 45.7169C40.1611 45.5995 40.0952 45.4403 40.0952 45.2743V6.73885ZM12.8515 51.1158H8.19751V39.7463L12.8515 39.3034V51.1158Z" fill="#F3F3FF"/>
<path fill-rule="evenodd" clip-rule="evenodd" d="M29.0738 32.5649V27.9902L31.6084 27.5987V32.322L29.0738 32.5649ZM29.0738 25.3564V20.7853L31.6084 20.1598V24.8793L29.0738 25.3564ZM29.0738 18.1515V13.5767L31.6084 12.7172V17.4405L29.0738 18.1515ZM29.0738 10.9466L29.073 6.66316L31.6083 5.57544V10.0017L29.0737 10.9466H29.0738ZM24.5464 32.9957V28.693L26.7956 28.3461V32.7803L24.5464 32.9957ZM24.5464 26.2119V21.899L26.7964 21.3444V25.7892L24.5464 26.2119ZM24.5464 19.425V15.1117L26.7964 14.3497V18.7948L24.5464 19.4251V19.425ZM24.5464 12.6295V8.60284L26.797 7.63811L26.7964 11.7951L24.5464 12.6295Z" fill="#AEAED6"/>
<path fill-rule="evenodd" clip-rule="evenodd" d="M29.8179 32.4936V27.8752L32.3525 27.4837V32.2506L29.8179 32.4936ZM29.8179 25.2164V20.6017L32.3525 19.9762V24.7392L29.8179 25.2163V25.2164ZM29.8179 17.9428V13.3245L32.3525 12.465V17.2319L29.8179 17.9428ZM29.8179 10.6692L29.8173 6.34382L32.3525 5.2561V9.72434L29.8179 10.6692ZM25.2905 32.9244V28.5783L27.5398 28.2315V32.7091L25.2905 32.9244ZM25.2905 26.0721V21.7156L27.5406 21.161V25.6494L25.2905 26.0721ZM25.2905 19.2163V14.8598L27.5406 14.0978V18.5861L25.2905 19.2163ZM25.2905 12.3536V8.28361L27.5412 7.31888L27.5406 11.5191L25.2905 12.3535V12.3536Z" fill="#F3F3FF"/>
<path fill-rule="evenodd" clip-rule="evenodd" d="M25.5554 51.1157V37.8536L26.4944 37.7642V51.1157H25.5554Z" fill="#AEAED6"/>
<path fill-rule="evenodd" clip-rule="evenodd" d="M31.1484 51.116H26.4944V37.7645L31.1484 37.3215V51.116Z" fill="#F3F3FF"/>
<path fill-rule="evenodd" clip-rule="evenodd" d="M25.076 38.5257C24.9938 38.5345 24.9107 38.527 24.8315 38.5035C24.7523 38.48 24.6786 38.441 24.6146 38.3887C24.5506 38.3365 24.4976 38.272 24.4587 38.1991C24.4198 38.1262 24.3958 38.0463 24.388 37.9641C24.3803 37.8818 24.3889 37.7989 24.4135 37.72C24.438 37.6411 24.478 37.5679 24.5311 37.5046C24.5842 37.4413 24.6494 37.3891 24.7228 37.3512C24.7962 37.3133 24.8764 37.2903 24.9587 37.2837L31.9868 36.6147C32.069 36.6058 32.152 36.6134 32.2312 36.6369C32.3105 36.6604 32.3842 36.6994 32.4482 36.7517C32.5122 36.8039 32.5652 36.8683 32.6041 36.9412C32.643 37.0141 32.667 37.094 32.6748 37.1763C32.6825 37.2585 32.6739 37.3415 32.6493 37.4204C32.6248 37.4993 32.5848 37.5725 32.5317 37.6358C32.4786 37.6991 32.4134 37.7512 32.34 37.7891C32.2666 37.8271 32.1864 37.85 32.1041 37.8567L25.076 38.5257Z" fill="#AEAED6"/>
<path fill-rule="evenodd" clip-rule="evenodd" d="M9.99883 33.8045V30.0772L12.1072 29.6421V33.514L9.99883 33.8045ZM9.99883 27.9299V24.2013L12.1072 23.5351V27.4105L9.99883 27.9299ZM9.9982 22.0565V18.5663L12.1072 17.6726V21.3059L9.9982 22.0566V22.0565ZM6.29565 34.3143V30.8371L8.12633 30.4611V34.0636L6.29565 34.3143ZM6.29565 28.8437V25.3675L8.12633 24.792V28.3935L6.29565 28.8438V28.8437ZM6.29565 23.3683V20.1248L8.12747 19.3533L8.12695 22.7208L6.29565 23.3683Z" fill="#7986BF"/>
<path fill-rule="evenodd" clip-rule="evenodd" d="M10.6795 33.7109V29.937L12.7879 29.5019V33.4204L10.6795 33.7109ZM10.6795 27.7626V23.9864L12.7879 23.3202V27.2432L10.6795 27.7626ZM10.6789 21.8143V18.278L12.7879 17.3843V21.0637L10.6789 21.8143ZM6.97632 34.2206V30.6968L8.80699 30.3208V33.9701L6.97632 34.2207V34.2206ZM6.97632 28.6764V25.1525L8.80699 24.577V28.2262L6.97632 28.6765V28.6764ZM6.97632 23.1276V19.8364L8.80814 19.0647L8.80762 22.48L6.97642 23.1275L6.97632 23.1276Z" fill="#F3F3FF"/>
<path fill-rule="evenodd" clip-rule="evenodd" d="M8.19751 51.1156H7.41992V39.8202L8.19751 39.7461V51.1156Z" fill="#7986BF"/>
<path d="M0 48.5068H51V51.1159H0V48.5068Z" fill="#E6B17C"/>
<path d="M0 49.8113H51V51.1158H0V49.8113Z" fill="#D19458"/>
<path fill-rule="evenodd" clip-rule="evenodd" d="M7.35942 40.4528C7.27728 40.4617 7.19419 40.4541 7.11499 40.4306C7.03578 40.4071 6.96204 40.3681 6.89804 40.3158C6.83403 40.2636 6.78105 40.1992 6.74215 40.1263C6.70326 40.0534 6.67923 39.9735 6.67146 39.8912C6.6637 39.809 6.67235 39.726 6.69691 39.6471C6.72148 39.5682 6.76147 39.495 6.81457 39.4317C6.86766 39.3684 6.9328 39.3163 7.00621 39.2784C7.07961 39.2404 7.15982 39.2175 7.24217 39.2108L13.6903 38.5971C13.7724 38.5882 13.8555 38.5958 13.9347 38.6193C14.0139 38.6428 14.0876 38.6818 14.1516 38.7341C14.2156 38.7863 14.2686 38.8508 14.3075 38.9237C14.3464 38.9965 14.3705 39.0764 14.3782 39.1587C14.386 39.2409 14.3773 39.3239 14.3528 39.4028C14.3282 39.4817 14.2882 39.5549 14.2351 39.6182C14.182 39.6815 14.1169 39.7336 14.0435 39.7716C13.9701 39.8095 13.8899 39.8324 13.8075 39.8391L7.35942 40.4528Z" fill="#3D4A75"/>
</svg>
