<svg width="48" height="48" viewBox="0 0 48 48" fill="none" xmlns="http://www.w3.org/2000/svg">
<path d="M44.5716 13.7148V46.5939H22.6875L24 13.7148H44.5716Z" fill="#F0F7FF"/>
<path d="M34.2854 13.7148H44.5717V46.5939H34.2854V13.7148Z" fill="#D7E9FC"/>
<path d="M29.6519 19.366H32.4644V22.1785H29.6519V19.366Z" fill="#00B3FF"/>
<path d="M36.1072 19.366H38.9197V22.1785H36.1072V19.366Z" fill="#3A80E8"/>
<path d="M29.6519 25.8215H32.4644V28.634H29.6519V25.8215Z" fill="#00B3FF"/>
<path d="M36.1072 25.8215H38.9197V28.634H36.1072V25.8215Z" fill="#3A80E8"/>
<path d="M29.6519 32.2769H32.4644V35.0894H29.6519V32.2769Z" fill="#00B3FF"/>
<path d="M36.1072 32.2769H38.9197V35.0894H36.1072V32.2769Z" fill="#3A80E8"/>
<path d="M6.85693 0H20.5716V9.71438H6.85693V0Z" fill="#F0F7FF"/>
<path d="M13.7146 0H20.5715V9.71438H13.7146V0Z" fill="#D7E9FC"/>
<path d="M29.6519 38.7322H32.4644V41.5447H29.6519V38.7322Z" fill="#00B3FF"/>
<path d="M36.1072 38.7322H38.9197V41.5447H36.1072V38.7322Z" fill="#3A80E8"/>
<path d="M24 6.85693V46.5938H3.42847V10.2854L13.7147 8.57068L24 6.85693Z" fill="#00B3FF"/>
<path d="M23.9999 6.85693V46.5938H13.7146V8.57068L23.9999 6.85693Z" fill="#3A80E8"/>
<path d="M15.5356 12.9106H18.3481V15.7231H15.5356V12.9106ZM15.5356 19.366H18.3481V22.1785H15.5356V19.366Z" fill="#00B3FF"/>
<path d="M9.08032 19.366H11.8928V22.1785H9.08032V19.366Z" fill="#00F6FE"/>
<path d="M15.5356 25.8215H18.3481V28.634H15.5356V25.8215Z" fill="#00B3FF"/>
<path d="M9.08032 25.8215H11.8928V28.634H9.08032V25.8215Z" fill="#00F6FE"/>
<path d="M15.5356 32.2769H18.3481V35.0894H15.5356V32.2769Z" fill="#00B3FF"/>
<path d="M9.08032 32.2769H11.8928V35.0894H9.08032V32.2769ZM9.0806 38.7322H18.3478V46.5938H9.0806V38.7322Z" fill="#00F6FE"/>
<path d="M13.7146 38.7322H18.3477V46.5938H13.7146V38.7322Z" fill="#00B3FF"/>
<path d="M0 45.1875H48V48H0V45.1875Z" fill="#9DD867"/>
<path d="M24 45.1875H48V48H24V45.1875Z" fill="#77C080"/>
</svg>
