<svg width="27" height="27" viewBox="0 0 27 27" fill="none" xmlns="http://www.w3.org/2000/svg">
<path d="M21.375 13.5002C21.375 15.9302 20.2725 18.1802 18.3712 19.6877C17.595 20.2952 17.0887 21.0939 16.9312 21.9489L16.875 21.9377H10.125L10.0462 21.9489C9.88873 21.0602 9.42748 20.2839 8.76373 19.7889C6.31123 17.9327 5.16373 14.8952 5.79373 11.8352C6.41248 8.85392 8.83123 6.42392 11.8125 5.80517C14.1862 5.29892 16.6162 5.88392 18.4612 7.38017C19.3736 8.11745 20.1091 9.05001 20.6133 10.1092C21.1176 11.1683 21.3779 12.3271 21.375 13.5002Z" fill="#FFC107"/>
<path d="M13.4989 5.62622C12.932 5.62634 12.3667 5.6863 11.8125 5.8051C8.83123 6.42385 6.41248 8.85385 5.79373 11.8351C5.16373 14.8951 6.31123 17.9326 8.76373 19.7888C9.42748 20.2838 9.88873 21.0601 10.0462 21.9488L10.125 21.9376H13.5V5.62622H13.4989Z" fill="#DEA806"/>
<path d="M20.8925 6.95139C20.7255 6.95146 20.5622 6.90198 20.4233 6.8092C20.2845 6.71642 20.1763 6.58453 20.1124 6.43021C20.0486 6.2759 20.032 6.10611 20.0647 5.94234C20.0974 5.77857 20.178 5.6282 20.2962 5.51026L21.8532 3.95326C21.9316 3.87489 22.0246 3.81272 22.127 3.7703C22.2294 3.72789 22.3392 3.70605 22.45 3.70605C22.5609 3.70605 22.6706 3.72789 22.773 3.7703C22.8754 3.81272 22.9685 3.87489 23.0468 3.95326C23.1252 4.03164 23.1874 4.12468 23.2298 4.22708C23.2722 4.32948 23.2941 4.43924 23.2941 4.55007C23.2941 4.66091 23.2722 4.77067 23.2298 4.87307C23.1874 4.97547 23.1252 5.06851 23.0468 5.14689L21.4898 6.70389C21.3314 6.86223 21.1165 6.95124 20.8925 6.95139ZM26.1563 14.3438H23.9547C23.7309 14.3438 23.5163 14.2549 23.3581 14.0966C23.1999 13.9384 23.111 13.7238 23.111 13.5C23.111 13.2762 23.1999 13.0616 23.3581 12.9034C23.5163 12.7452 23.7309 12.6563 23.9547 12.6563H26.1563C26.3801 12.6563 26.5947 12.7452 26.753 12.9034C26.9112 13.0616 27.0001 13.2762 27.0001 13.5C27.0001 13.7238 26.9112 13.9384 26.753 14.0966C26.5947 14.2549 26.3801 14.3438 26.1563 14.3438ZM22.4495 23.2931C22.3387 23.2934 22.2289 23.2717 22.1265 23.2292C22.0242 23.1867 21.9313 23.1243 21.8532 23.0456L20.2962 21.4886C20.2179 21.4103 20.1557 21.3172 20.1133 21.2148C20.0708 21.1124 20.049 21.0027 20.049 20.8918C20.049 20.781 20.0708 20.6712 20.1133 20.5688C20.1557 20.4664 20.2179 20.3734 20.2962 20.295C20.3746 20.2166 20.4676 20.1545 20.57 20.1121C20.6724 20.0696 20.7822 20.0478 20.893 20.0478C21.0039 20.0478 21.1136 20.0696 21.216 20.1121C21.3184 20.1545 21.4115 20.2166 21.4898 20.295L23.0468 21.852C23.1652 21.97 23.2458 22.1205 23.2784 22.2844C23.3111 22.4482 23.2944 22.6181 23.2304 22.7725C23.1664 22.9268 23.0581 23.0587 22.919 23.1514C22.78 23.2441 22.6166 23.2934 22.4495 23.2931Z" fill="#FFC107"/>
<path d="M16.9311 21.9488C16.8974 22.14 16.8749 22.3313 16.8749 22.5338V25.0312C16.8749 26.1112 15.9861 27 14.9061 27H12.0936C11.1486 27 10.1249 26.28 10.1249 24.705V22.7138C10.1249 22.455 10.1024 22.1963 10.0461 21.9488L10.1249 21.9375H16.8749L16.9311 21.9488Z" fill="#607D8B"/>
<path d="M13.4999 21.9375H10.1249L10.0461 21.9488C10.1024 22.1963 10.1249 22.455 10.1249 22.7138V24.705C10.1249 26.28 11.1486 27 12.0936 27H13.4999V21.9375Z" fill="#546D79"/>
<path d="M13.5 3.88913C13.2762 3.88913 13.0616 3.80023 12.9034 3.642C12.7451 3.48376 12.6562 3.26915 12.6562 3.04538V0.84375C12.6562 0.619974 12.7451 0.405362 12.9034 0.247129C13.0616 0.0888948 13.2762 0 13.5 0C13.7238 0 13.9384 0.0888948 14.0966 0.247129C14.2549 0.405362 14.3438 0.619974 14.3438 0.84375V3.04538C14.3438 3.26915 14.2549 3.48376 14.0966 3.642C13.9384 3.80023 13.7238 3.88913 13.5 3.88913Z" fill="#FFC107"/>
<path d="M13.5 0C13.2762 0 13.0616 0.0888948 12.9034 0.247129C12.7451 0.405362 12.6562 0.619974 12.6562 0.84375V3.04538C12.6562 3.51113 13.0342 3.88913 13.5 3.88913V0Z" fill="#DEA806"/>
<path d="M6.10773 6.95139C5.99691 6.95166 5.88714 6.92992 5.78479 6.88744C5.68243 6.84495 5.58953 6.78256 5.51148 6.70389L3.95448 5.14689C3.87611 5.06851 3.81394 4.97547 3.77152 4.87307C3.72911 4.77067 3.70728 4.66091 3.70728 4.55007C3.70728 4.43924 3.72911 4.32948 3.77152 4.22708C3.81394 4.12468 3.87611 4.03164 3.95448 3.95326C4.03286 3.87489 4.1259 3.81272 4.2283 3.7703C4.3307 3.72789 4.44046 3.70605 4.5513 3.70605C4.66213 3.70605 4.77189 3.72789 4.87429 3.7703C4.97669 3.81272 5.06973 3.87489 5.14811 3.95326L6.70511 5.51026C6.82341 5.62827 6.90402 5.77874 6.9367 5.94262C6.96938 6.10649 6.95267 6.27637 6.88868 6.43073C6.8247 6.58509 6.71632 6.71698 6.57729 6.80967C6.43825 6.90236 6.27483 6.95169 6.10773 6.95139Z" fill="#FFC107"/>
<path d="M3.95435 3.95459C3.87594 4.03295 3.81375 4.12598 3.77131 4.22839C3.72887 4.33079 3.70703 4.44055 3.70703 4.5514C3.70703 4.66225 3.72887 4.77201 3.77131 4.87442C3.81375 4.97682 3.87594 5.06986 3.95435 5.14821L5.51135 6.70521C5.66955 6.86322 5.88401 6.95197 6.1076 6.95197C6.3312 6.95197 6.54565 6.86322 6.70385 6.70521L3.95435 3.95459Z" fill="#DEA806"/>
<path d="M3.04538 14.3438H0.84375C0.619974 14.3438 0.405362 14.2549 0.247129 14.0966C0.0888948 13.9384 0 13.7238 0 13.5C0 13.2762 0.0888948 13.0616 0.247129 12.9034C0.405362 12.7451 0.619974 12.6562 0.84375 12.6562H3.04538C3.26915 12.6562 3.48376 12.7451 3.642 12.9034C3.80023 13.0616 3.88913 13.2762 3.88913 13.5C3.88913 13.7238 3.80023 13.9384 3.642 14.0966C3.48376 14.2549 3.26915 14.3438 3.04538 14.3438Z" fill="#FFC107"/>
<path d="M3.88913 13.5H0C0 13.9658 0.378 14.3438 0.84375 14.3438H3.04538C3.26915 14.3438 3.48376 14.2549 3.642 14.0966C3.80023 13.9384 3.88913 13.7238 3.88913 13.5Z" fill="#DEA806"/>
<path d="M4.55068 23.2932C4.38368 23.2933 4.22041 23.2438 4.08155 23.151C3.94269 23.0582 3.83449 22.9263 3.77064 22.772C3.70679 22.6177 3.69018 22.4479 3.72289 22.2841C3.75561 22.1204 3.83619 21.97 3.95443 21.8521L5.51143 20.2951C5.5898 20.2167 5.68285 20.1545 5.78525 20.1121C5.88765 20.0697 5.9974 20.0479 6.10824 20.0479C6.21908 20.0479 6.32883 20.0697 6.43123 20.1121C6.53363 20.1545 6.62668 20.2167 6.70505 20.2951C6.78343 20.3734 6.8456 20.4665 6.88801 20.5689C6.93043 20.6713 6.95226 20.781 6.95226 20.8919C6.95226 21.0027 6.93043 21.1125 6.88801 21.2149C6.8456 21.3173 6.78343 21.4103 6.70505 21.4887L5.14805 23.0457C5.06972 23.1243 4.97661 23.1866 4.87409 23.2291C4.77156 23.2716 4.66165 23.2934 4.55068 23.2932Z" fill="#FFC107"/>
<path d="M6.70385 20.2961L3.95435 23.0456C4.03253 23.1241 4.12545 23.1864 4.22777 23.2289C4.33009 23.2715 4.4398 23.2933 4.5506 23.2933C4.66139 23.2933 4.7711 23.2715 4.87342 23.2289C4.97574 23.1864 5.06866 23.1241 5.14685 23.0456L6.70385 21.4886C6.78222 21.4104 6.84439 21.3174 6.88681 21.2151C6.92923 21.1128 6.95107 21.0031 6.95107 20.8924C6.95107 20.7816 6.92923 20.672 6.88681 20.5697C6.84439 20.4673 6.78222 20.3744 6.70385 20.2961Z" fill="#DEA806"/>
<path d="M17.7188 14.0625C17.495 14.0625 17.2804 13.9736 17.1221 13.8154C16.9639 13.6571 16.875 13.4425 16.875 13.2188C16.8744 12.3984 16.5483 11.6119 15.9682 11.0318C15.3881 10.4517 14.6016 10.1256 13.7813 10.125C13.5575 10.125 13.3429 10.0361 13.1846 9.87787C13.0264 9.71964 12.9375 9.50503 12.9375 9.28125C12.9375 9.05747 13.0264 8.84286 13.1846 8.68463C13.3429 8.52639 13.5575 8.4375 13.7813 8.4375C15.0489 8.43899 16.2641 8.9432 17.1605 9.83954C18.0568 10.7359 18.561 11.9511 18.5625 13.2188C18.5625 13.4425 18.4736 13.6571 18.3154 13.8154C18.1571 13.9736 17.9425 14.0625 17.7188 14.0625Z" fill="#FFD54F"/>
<path d="M13.203 9.27661C13.1164 9.27661 13.0275 9.27774 12.9375 9.28111C12.9375 9.74686 13.3155 10.1249 13.7812 10.1249C14.6016 10.1255 15.3881 10.4516 15.9682 11.0317C16.5483 11.6117 16.8744 12.3983 16.875 13.2186C16.875 13.6844 17.253 14.0624 17.7188 14.0624C18.1845 14.0624 18.3431 9.27661 13.203 9.27661Z" fill="#DEB945"/>
</svg>
