<svg width="40" height="23" viewBox="0 0 40 23" fill="none" xmlns="http://www.w3.org/2000/svg">
<path d="M37.9891 10.4893C38.8154 10.4893 39.4852 11.1592 39.4852 11.9855C39.4852 12.8118 38.8154 13.4816 37.9891 13.4816L37.9891 10.4893ZM0.942045 13.0434C0.357756 12.4591 0.357757 11.5118 0.942047 10.9275L10.4636 1.40595C11.0479 0.821657 11.9952 0.821658 12.5795 1.40595C13.1638 1.99024 13.1638 2.93756 12.5795 3.52185L4.1159 11.9855L12.5795 20.4491C13.1638 21.0334 13.1638 21.9807 12.5795 22.565C11.9952 23.1493 11.0479 23.1493 10.4636 22.565L0.942045 13.0434ZM37.9891 13.4816L2 13.4816L2 10.4893L37.9891 10.4893L37.9891 13.4816Z" fill="white"/>
</svg>
