<svg width="14" height="19" viewBox="0 0 14 19" fill="none" xmlns="http://www.w3.org/2000/svg">
<path d="M6.81378 0C5.00739 0.00240371 3.27568 0.721054 1.99836 1.99837C0.721054 3.27568 0.00240371 5.00739 0 6.81378C0 11.7055 6.34817 17.8322 6.61788 18.0906C6.67035 18.1416 6.74062 18.1701 6.81378 18.1701C6.88694 18.1701 6.95721 18.1416 7.00968 18.0906C7.27939 17.8322 13.6276 11.7055 13.6276 6.81378C13.6252 5.00739 12.9065 3.27568 11.6292 1.99837C10.3519 0.721054 8.62017 0.00240371 6.81378 0ZM6.81378 9.93676C6.19611 9.93676 5.59232 9.7536 5.07874 9.41045C4.56517 9.06729 4.16489 8.57955 3.92852 8.00889C3.69215 7.43824 3.6303 6.81032 3.75081 6.20452C3.87131 5.59872 4.16874 5.04226 4.6055 4.6055C5.04225 4.16874 5.59872 3.87131 6.20452 3.75081C6.81032 3.6303 7.43824 3.69215 8.00889 3.92852C8.57954 4.16489 9.06729 4.56517 9.41044 5.07874C9.7536 5.59232 9.93676 6.19611 9.93676 6.81378C9.93624 7.64189 9.60704 8.43592 9.02148 9.02148C8.43592 9.60704 7.64188 9.93624 6.81378 9.93676Z" fill="#EB562C"/>
</svg>
