<svg width="38" height="38" viewBox="0 0 38 38" fill="none" xmlns="http://www.w3.org/2000/svg">
<path d="M1.84717 13.2641H36.1531V34.9726H1.84717V13.2641Z" fill="#E3F1FF"/>
<path fill-rule="evenodd" clip-rule="evenodd" d="M1.84724 13.2641H36.1532C36.8504 13.2641 37.4208 12.6937 37.4208 11.9965V10.7288H0.57959V11.9965C0.57959 12.6937 1.15006 13.2641 1.84724 13.2641Z" fill="#7986BF"/>
<path d="M1.84717 3.0437H36.1532V10.7289H1.84717V3.0437Z" fill="#E3F1FF"/>
<path fill-rule="evenodd" clip-rule="evenodd" d="M1.84703 34.9727L0 36.8198V37.8752H38V36.8198L36.153 34.9727H1.84703Z" fill="#5D689E"/>
<path fill-rule="evenodd" clip-rule="evenodd" d="M1.84724 3.0436H36.1532C36.8504 3.0436 37.4208 2.47313 37.4208 1.77595V0.508301H0.57959V1.77595C0.57959 2.47313 1.15006 3.0436 1.84724 3.0436Z" fill="#7986BF"/>
<path fill-rule="evenodd" clip-rule="evenodd" d="M1.84724 3.0436H34.8487C35.5459 3.0436 36.1163 2.47313 36.1163 1.77595V0.508301H0.57959V1.77595C0.57959 2.47313 1.15006 3.0436 1.84724 3.0436Z" fill="#909CD1"/>
<path d="M10.896 13.2641H11.9817V18.4603H10.896V13.2641Z" fill="#9B827A"/>
<path fill-rule="evenodd" clip-rule="evenodd" d="M11.4388 17.4281C13.1806 17.4281 14.5926 18.8401 14.5926 20.5818H8.28516C8.28516 18.8401 9.69713 17.4281 11.4388 17.4281Z" fill="#C2A9A1"/>
<path fill-rule="evenodd" clip-rule="evenodd" d="M13.8365 20.5817H8.28516C8.28516 18.968 9.49736 17.6375 11.0608 17.4507C12.6243 17.6375 13.8365 18.968 13.8365 20.5817Z" fill="#D9C5BF"/>
<path fill-rule="evenodd" clip-rule="evenodd" d="M22.0787 20.3487H32.9983C33.5196 20.3487 33.9462 20.7752 33.9462 21.2965V34.9727H21.1309V21.2965C21.1309 20.7752 21.5574 20.3487 22.0787 20.3487Z" fill="#FDB0A0"/>
<path fill-rule="evenodd" clip-rule="evenodd" d="M33.9464 34.9728H22.1548V21.6053C22.1548 21.2208 22.4684 20.9071 22.853 20.9071H32.9987C33.52 20.9071 33.9465 21.3336 33.9465 21.8549V34.9728H33.9464Z" fill="#FFCEC0"/>
<path d="M26.9956 20.3487H28.0813V34.9727H26.9956V20.3487Z" fill="#F29988"/>
<path fill-rule="evenodd" clip-rule="evenodd" d="M25.2632 27.1127C25.2632 26.9688 25.3204 26.8307 25.4222 26.7289C25.524 26.6271 25.6621 26.5699 25.806 26.5699C25.95 26.5699 26.0881 26.6271 26.1899 26.7289C26.2917 26.8307 26.3489 26.9688 26.3489 27.1127V28.2086C26.3489 28.3526 26.2917 28.4907 26.1899 28.5925C26.0881 28.6943 25.95 28.7515 25.806 28.7515C25.6621 28.7515 25.524 28.6943 25.4222 28.5925C25.3204 28.4907 25.2632 28.3526 25.2632 28.2086V27.1127ZM28.7281 27.1127C28.7281 26.9688 28.7853 26.8307 28.8871 26.7289C28.9889 26.6271 29.127 26.5699 29.2709 26.5699C29.4149 26.5699 29.553 26.6271 29.6548 26.7289C29.7566 26.8307 29.8138 26.9688 29.8138 27.1127V28.2086C29.8138 28.3526 29.7566 28.4907 29.6548 28.5925C29.553 28.6943 29.4149 28.7515 29.2709 28.7515C29.127 28.7515 28.9889 28.6943 28.8871 28.5925C28.7853 28.4907 28.7281 28.3526 28.7281 28.2086V27.1127Z" fill="#F29988"/>
<path fill-rule="evenodd" clip-rule="evenodd" d="M12.6794 20.5817V21.2824C12.6794 21.9648 12.121 22.5232 11.4386 22.5232C10.7561 22.5232 10.1978 21.9648 10.1978 21.2824V20.5817H12.6794Z" fill="#FFEB87"/>
<path fill-rule="evenodd" clip-rule="evenodd" d="M11.0605 22.4639C10.5615 22.303 10.1978 21.8332 10.1978 21.2824V20.5817H11.9233V21.2824C11.9233 21.8332 11.5595 22.303 11.0605 22.4639Z" fill="white"/>
<path d="M26.445 5.37396H11.5552C10.72 5.37396 10.043 6.05102 10.043 6.88621C10.043 7.7214 10.72 8.39845 11.5552 8.39845H26.445C27.2802 8.39845 27.9573 7.7214 27.9573 6.88621C27.9573 6.05102 27.2802 5.37396 26.445 5.37396Z" fill="#4EB1FC"/>
<path fill-rule="evenodd" clip-rule="evenodd" d="M11.555 5.37402H26.4449C27.2766 5.37402 27.9571 6.05453 27.9571 6.88627C27.9571 7.00399 27.9435 7.11877 27.9177 7.22889C27.6418 7.51901 27.2526 7.70055 26.8229 7.70055H11.9331C11.1014 7.70055 10.4209 7.02004 10.4209 6.18831C10.4209 6.07059 10.4345 5.95581 10.4603 5.84569C10.7362 5.55557 11.1254 5.37402 11.5551 5.37402H11.555Z" fill="#85CAFF"/>
<path fill-rule="evenodd" clip-rule="evenodd" d="M7.93021 25.6409H14.9471C16.2711 25.6409 17.3544 26.7242 17.3544 28.0482V34.9727H5.52295V28.0482C5.52295 26.7242 6.60618 25.6409 7.93021 25.6409Z" fill="#FDB0A0"/>
<path fill-rule="evenodd" clip-rule="evenodd" d="M7.93021 25.641H14.2123C15.5363 25.641 16.6196 26.7242 16.6196 28.0483V34.9728H5.52295V28.0483C5.52295 26.7242 6.60618 25.641 7.93021 25.641Z" fill="#FFCEC0"/>
<path fill-rule="evenodd" clip-rule="evenodd" d="M17.3546 29.3737C18.0037 29.3737 18.5347 29.9047 18.5347 30.5538V36.2725H16.1743V30.5538C16.1743 29.9047 16.7054 29.3737 17.3545 29.3737H17.3546Z" fill="#C95645"/>
<path fill-rule="evenodd" clip-rule="evenodd" d="M17.7491 36.2725H16.1743V30.5538C16.1743 30.0423 16.5042 29.6041 16.9617 29.4413C17.4192 29.604 17.7491 30.0422 17.7491 30.5538V36.2725Z" fill="#EA806F"/>
<path d="M6.70312 32.5065H16.1741V34.9727H6.70312V32.5065Z" fill="#F29988"/>
<path fill-rule="evenodd" clip-rule="evenodd" d="M5.52302 29.3737C6.17212 29.3737 6.70319 29.9047 6.70319 30.5538V36.2725H4.34277V30.5538C4.34277 29.9047 4.87392 29.3737 5.52302 29.3737Z" fill="#C95645"/>
<path fill-rule="evenodd" clip-rule="evenodd" d="M5.9176 36.2725H4.34277V30.5538C4.34277 30.0422 4.67268 29.604 5.13015 29.4412C5.5877 29.6039 5.9176 30.0422 5.9176 30.5538V36.2725Z" fill="#EA806F"/>
<path d="M6.70312 32.5065H16.1741V33.3902H6.70312V32.5065Z" fill="#EA806F"/>
<path d="M0 36.8198H38V37.8752H0V36.8198Z" fill="#3D4A75"/>
<path d="M34.8486 3.0437H36.1531V10.7289H34.8486V3.0437ZM34.8486 13.2641H36.1531V34.9727H34.8486V13.2641Z" fill="#B6DBFF"/>
<path fill-rule="evenodd" clip-rule="evenodd" d="M1.84724 13.2641H34.8487C35.5459 13.2641 36.1163 12.6937 36.1163 11.9965V10.7288H0.57959V11.9965C0.57959 12.6937 1.15006 13.2641 1.84724 13.2641Z" fill="#909CD1"/>
</svg>
