<svg width="40" height="49" viewBox="0 0 40 49" fill="none" xmlns="http://www.w3.org/2000/svg">
<path d="M22.8219 40.1497H17.1777C16.3984 40.1497 15.7666 39.5179 15.7666 38.7386V28.0047C15.7666 27.2254 16.3984 26.5936 17.1777 26.5936H22.8219C23.6012 26.5936 24.233 27.2254 24.233 28.0047V38.7386C24.233 39.5179 23.6012 40.1497 22.8219 40.1497Z" fill="#453D81"/>
<path d="M22.8221 26.5936H20V40.1497H22.8221C23.6014 40.1497 24.2332 39.5179 24.2332 38.7386V28.0047C24.2332 27.2254 23.6014 26.5936 22.8221 26.5936Z" fill="#2B0552"/>
<path d="M27.8544 48.1645H12.146C11.9204 48.1646 11.6981 48.1105 11.4977 48.0069C11.2973 47.9032 11.1247 47.7531 10.9943 47.569C10.864 47.3849 10.7796 47.1722 10.7484 46.9487C10.7172 46.7253 10.74 46.4977 10.815 46.2849L13.6371 38.27C13.7341 37.9945 13.9142 37.7558 14.1526 37.587C14.391 37.4182 14.6759 37.3275 14.968 37.3275H25.0321C25.3242 37.3275 25.6091 37.4182 25.8475 37.587C26.0859 37.7558 26.266 37.9945 26.363 38.27L29.1851 46.2849C29.2601 46.4977 29.2829 46.7253 29.2517 46.9487C29.2205 47.1721 29.1362 47.3848 29.0059 47.5689C28.8756 47.753 28.703 47.9032 28.5026 48.0068C28.3023 48.1104 28.08 48.1645 27.8544 48.1645Z" fill="#5E54AC"/>
<path d="M29.1851 46.2849L26.363 38.27C26.266 37.9945 26.0859 37.7558 25.8475 37.587C25.6091 37.4182 25.3242 37.3275 25.0321 37.3275H20V48.1645H27.8542C28.0798 48.1645 28.3021 48.1105 28.5025 48.0068C28.7028 47.9032 28.8754 47.753 29.0058 47.5689C29.1361 47.3848 29.2205 47.1721 29.2517 46.9487C29.2829 46.7253 29.2601 46.4977 29.1851 46.2849Z" fill="#453D81"/>
<path d="M3.9209 13.9491L7.57293 28.2874C7.65034 28.5914 7.82679 28.8608 8.07441 29.0533C8.32204 29.2458 8.62673 29.3503 8.94035 29.3503H31.0599C31.3735 29.3503 31.6782 29.2458 31.9258 29.0533C32.1735 28.8608 32.3499 28.5914 32.4273 28.2874L36.0794 13.9491H3.9209Z" fill="#FED953"/>
<path d="M20 13.9491V29.3503H31.0598C31.3734 29.3503 31.6781 29.2458 31.9257 29.0533C32.1733 28.8608 32.3498 28.5914 32.4272 28.2874L36.0792 13.9491H20Z" fill="#FEB55D"/>
<path d="M12.5179 29.3503H15.421L12.464 13.9491H9.58936L12.5179 29.3503Z" fill="#FFF6A4"/>
<path d="M24.6934 29.3503H27.5678L30.5044 13.9491H27.6314L24.6934 29.3503Z" fill="#FED953"/>
<path d="M18.5889 13.9491H21.411V29.3503H18.5889V13.9491Z" fill="#FFF6A4"/>
<path d="M20 13.9491H21.4111V29.3503H20V13.9491Z" fill="#FED953"/>
<path d="M38.5889 14.6186H1.41112C1.17338 14.6186 0.939496 14.5585 0.731173 14.444C0.522851 14.3294 0.346847 14.1641 0.219503 13.9634C0.0921587 13.7626 0.017602 13.5329 0.00275473 13.2956C-0.0120925 13.0584 0.0332511 12.8212 0.134576 12.6061C1.8844 8.89171 4.63504 5.74644 8.08906 3.51055C11.637 1.2139 15.7557 0 20 0C24.2443 0 28.363 1.2139 31.9108 3.51065C35.3648 5.74653 38.1155 8.89171 39.8653 12.6062C39.9667 12.8213 40.0121 13.0584 39.9973 13.2957C39.9824 13.533 39.9079 13.7627 39.7805 13.9635C39.6532 14.1642 39.4772 14.3296 39.2688 14.4441C39.0605 14.5586 38.8266 14.6186 38.5889 14.6186Z" fill="#5E54AC"/>
<path d="M39.8653 12.6062C38.1155 8.89181 35.3649 5.74653 31.9108 3.51065C28.363 1.2139 24.2443 0 20 0V14.6186H38.5889C38.8266 14.6186 39.0605 14.5586 39.2688 14.444C39.4771 14.3295 39.6532 14.1642 39.7805 13.9634C39.9078 13.7627 39.9824 13.533 39.9972 13.2957C40.012 13.0584 39.9667 12.8213 39.8653 12.6062Z" fill="#453D81"/>
</svg>
