<svg width="46" height="46" viewBox="0 0 46 46" fill="none" xmlns="http://www.w3.org/2000/svg">
<path d="M23 26.0547C22.8695 26.0547 22.7391 26.0357 22.6128 25.9978C19.7167 25.129 17.2318 23.3875 15.4269 20.9617C13.622 18.5358 12.668 15.6554 12.668 12.6318V4.94141C12.668 4.19714 13.2714 3.59375 14.0156 3.59375C15.7186 3.59375 17.2496 2.64752 18.0112 1.12439L18.2008 0.745074C18.3127 0.521192 18.4848 0.332902 18.6977 0.201303C18.9106 0.0697053 19.156 1.63641e-07 19.4062 7.19799e-10L26.5938 7.19799e-10C26.844 -8.1781e-06 27.0894 0.0696835 27.3023 0.201265C27.5152 0.332847 27.6873 0.521119 27.7992 0.744984L27.9888 1.12439C28.7504 2.64752 30.2814 3.59375 31.9844 3.59375C32.7286 3.59375 33.332 4.19714 33.332 4.94141V12.6318C33.332 15.6554 32.378 18.5358 30.5731 20.9617C28.7682 23.3875 26.2833 25.129 23.3872 25.9978C23.2616 26.0355 23.1312 26.0547 23 26.0547Z" fill="#9DDFF6"/>
<path d="M31.9844 3.59375C30.2814 3.59375 28.7504 2.64752 27.9888 1.12448L27.7992 0.745074C27.6873 0.521192 27.5152 0.332902 27.3023 0.201303C27.0894 0.0697053 26.844 1.62922e-07 26.5938 0L23 0V26.0547C23.1305 26.0547 23.2609 26.0357 23.3872 25.9978C26.2833 25.129 28.7682 23.3875 30.5731 20.9617C32.378 18.5358 33.332 15.6554 33.332 12.6318V4.94141C33.332 4.19714 32.7286 3.59375 31.9844 3.59375Z" fill="#6BA7FF"/>
<path d="M15.3633 6.16355V12.6319C15.3633 17.5064 18.4154 21.7407 23 23.2927C27.5846 21.7407 30.6367 17.5064 30.6367 12.6319V6.16355C28.5972 5.77857 26.824 4.52839 25.7739 2.69531H20.2261C19.176 4.52839 17.4028 5.77857 15.3633 6.16355Z" fill="#F5F5FF"/>
<path d="M25.7739 2.69531H23V23.2926C27.5846 21.7406 30.6367 17.5063 30.6367 12.6318V6.16355C28.5972 5.77857 26.824 4.5283 25.7739 2.69531Z" fill="#E2E7FA"/>
<path d="M21.7294 16.9161C21.5524 16.9164 21.3771 16.8816 21.2136 16.8139C21.05 16.7461 20.9015 16.6467 20.7765 16.5214L18.2354 13.9802C17.7091 13.4539 17.7091 12.6007 18.2354 12.0744C18.7616 11.5481 19.615 11.5481 20.1413 12.0744L21.7295 13.6625L25.8589 9.53322C26.3851 9.00691 27.2385 9.00691 27.7648 9.53322C28.2911 10.0595 28.2911 10.9128 27.7648 11.4391L22.6825 16.5214C22.5575 16.6467 22.4089 16.7461 22.2454 16.8139C22.0818 16.8816 21.9065 16.9164 21.7294 16.9161Z" fill="#6B61B1"/>
<path d="M25.8588 9.53322L23 12.392V16.2038L27.7647 11.4391C28.291 10.9128 28.291 10.0595 27.7647 9.53322C27.2384 9.00691 26.385 9.00691 25.8588 9.53322Z" fill="#453D81"/>
<path d="M9.43359 30.7266C4.23191 30.7266 0 34.9585 0 40.1602V44.6523C0 45.3966 0.603391 46 1.34766 46H15.3633L18.2791 36.8812C16.944 33.2912 13.4829 30.7266 9.43359 30.7266Z" fill="#A2E786"/>
<path d="M15.3633 46L18.2791 36.8812C16.944 33.2912 13.4829 30.7266 9.43359 30.7266V46H15.3633Z" fill="#00CB75"/>
<path d="M9.43359 33.4219C6.2135 33.4219 3.59375 30.8021 3.59375 27.582C3.59375 24.3619 6.2135 21.7422 9.43359 21.7422C12.6537 21.7422 15.2734 24.3619 15.2734 27.582C15.2734 30.8021 12.6537 33.4219 9.43359 33.4219Z" fill="#FFD5B2"/>
<path d="M15.2734 27.582C15.2734 24.3619 12.6537 21.7422 9.43359 21.7422V33.4219C12.6537 33.4219 15.2734 30.8021 15.2734 27.582Z" fill="#FAC394"/>
<path d="M36.5664 30.7266C32.5242 30.7266 29.068 33.2824 27.7279 36.8628L30.6367 46H44.6523C45.3966 46 46 45.3966 46 44.6523V40.1602C46 34.9585 41.7681 30.7266 36.5664 30.7266Z" fill="#EF5CA2"/>
<path d="M44.6523 46C45.3966 46 46 45.3966 46 44.6523V40.1602C46 34.9585 41.7681 30.7266 36.5664 30.7266V46H44.6523Z" fill="#EA1C81"/>
<path d="M36.5664 33.4219C33.3463 33.4219 30.7266 30.8021 30.7266 27.582C30.7266 24.3619 33.3463 21.7422 36.5664 21.7422C39.7865 21.7422 42.4062 24.3619 42.4062 27.582C42.4062 30.8021 39.7865 33.4219 36.5664 33.4219Z" fill="#FFD5B2"/>
<path d="M42.4062 27.582C42.4062 24.3619 39.7865 21.7422 36.5664 21.7422V33.4219C39.7865 33.4219 42.4062 30.8021 42.4062 27.582Z" fill="#FAC394"/>
<path d="M30.6367 46H15.3633V42.9529C15.3633 38.7485 18.7205 35.2599 22.9246 35.2191C27.1699 35.178 30.6367 38.6195 30.6367 42.8555V46Z" fill="#F5F5FF"/>
<path d="M23 35.2194V46H30.6367V42.8555C30.6367 38.6446 27.2108 35.2194 23 35.2194Z" fill="#E2E7FA"/>
<path d="M23 37.9141C20.2753 37.9141 18.0586 35.6973 18.0586 32.9727C18.0586 30.248 20.2753 28.0312 23 28.0312C25.7247 28.0312 27.9414 30.248 27.9414 32.9727C27.9414 35.6973 25.7247 37.9141 23 37.9141Z" fill="#FFD5B2"/>
<path d="M27.9414 32.9727C27.9414 30.248 25.7247 28.0312 23 28.0312V37.9141C25.7247 37.9141 27.9414 35.6973 27.9414 32.9727Z" fill="#FAC394"/>
</svg>
