<svg width="54" height="49" viewBox="0 0 54 49" fill="none" xmlns="http://www.w3.org/2000/svg">
<path d="M5.18073 46.7938L9.03422 47.7367L12.8876 46.7938V44.904L9.03422 43.961L5.18073 44.904V46.7938Z" fill="#F9CF58"/>
<path d="M17.0314 46.7938L20.8849 47.7367L24.7384 46.7938V44.904L20.8849 43.961L17.0314 44.904V46.7938Z" fill="#FFAC3E"/>
<path d="M28.8821 46.7938L32.7356 47.7367L36.5891 46.7938V44.904L32.7356 43.961L28.8821 44.904V46.7938Z" fill="#82D361"/>
<path d="M40.7327 46.7938L44.5862 47.7367L48.4397 46.7938V44.904L44.5862 43.961L40.7327 44.904V46.7938Z" fill="#6CC4FF"/>
<path d="M12.8876 44.904H5.18073V37.2797C5.18073 36.6998 5.65076 36.2298 6.23059 36.2298H11.838C12.4178 36.2298 12.8878 36.6998 12.8878 37.2797V44.904H12.8876Z" fill="#FFE27A"/>
<path d="M24.7384 44.904H17.0314V31.5496C17.0314 30.9698 17.5014 30.4997 18.0812 30.4997H23.6885C24.2683 30.4997 24.7384 30.9698 24.7384 31.5496V44.904Z" fill="#FFBA57"/>
<path d="M36.5891 44.904H28.8821V25.8195C28.8821 25.2396 29.3521 24.7696 29.9319 24.7696H35.5393C36.1191 24.7696 36.5892 25.2396 36.5892 25.8195V44.904H36.5891Z" fill="#98DB7C"/>
<path d="M48.4397 44.904H40.7327V20.0893C40.7327 19.5095 41.2027 19.0394 41.7825 19.0394H47.3899C47.9697 19.0394 48.4398 19.5095 48.4398 20.0893L48.4397 44.904Z" fill="#8BCAFF"/>
<path d="M44.1986 9.68503L43.2737 0.472499C43.2661 0.397108 43.2423 0.324249 43.2039 0.258927C43.1656 0.193606 43.1135 0.137371 43.0513 0.0940859C42.9891 0.050801 42.9183 0.0214924 42.8437 0.00817349C42.7691 -0.00514539 42.6925 -0.00215874 42.6192 0.0169284L33.6527 2.3522C33.2187 2.46526 33.1171 3.03514 33.4853 3.29111L35.8276 4.91966C35.8276 4.91966 29.8204 16.6347 8.11584 23.3329V23.9184C14.0711 23.951 29.6385 22.2478 39.4022 9.12772L41.0333 8.53908L43.3766 10.1684C43.7446 10.4242 44.2433 10.131 44.1986 9.68503Z" fill="#FF4755"/>
<path d="M40.093 7.87501C39.8594 7.70998 39.538 7.76342 39.3673 7.99288C29.6037 21.113 17.0777 22.7652 8.47108 23.3631C8.3539 23.3718 8.23609 23.3609 8.12249 23.3309L8.11484 23.3333C7.00472 23.6835 7.3157 25.3332 8.47695 25.2524C17.1741 24.6473 31.5304 21.5414 41.0332 8.53919L40.093 7.87501Z" fill="#FC2B3A"/>
<path d="M52.8458 48.3684H0.774659C0.568052 48.3651 0.371048 48.2806 0.226132 48.1333C0.0812156 47.986 0 47.7877 0 47.581C0 47.3744 0.0812156 47.1761 0.226132 47.0288C0.371048 46.8815 0.568052 46.797 0.774659 46.7936H52.8459C53.0525 46.797 53.2495 46.8815 53.3944 47.0288C53.5393 47.1761 53.6205 47.3745 53.6205 47.5811C53.6205 47.7877 53.5392 47.9861 53.3943 48.1334C53.2494 48.2807 53.0524 48.3651 52.8458 48.3684Z" fill="#407093"/>
</svg>
