<svg width="40" height="23" viewBox="0 0 40 23" fill="none" xmlns="http://www.w3.org/2000/svg">
<path d="M1.99994 10.4893C1.17363 10.4893 0.503773 11.1592 0.503773 11.9855C0.503774 12.8118 1.17363 13.4816 1.99994 13.4816L1.99994 10.4893ZM39.047 13.0434C39.6313 12.4591 39.6313 11.5118 39.047 10.9275L29.5254 1.40595C28.9411 0.821657 27.9938 0.821658 27.4095 1.40595C26.8252 1.99024 26.8252 2.93756 27.4095 3.52185L35.8731 11.9855L27.4095 20.4491C26.8252 21.0334 26.8252 21.9807 27.4095 22.565C27.9938 23.1493 28.9411 23.1493 29.5254 22.565L39.047 13.0434ZM1.99994 13.4816L37.989 13.4816L37.989 10.4893L1.99994 10.4893L1.99994 13.4816Z" fill="white"/>
</svg>
