<svg width="53" height="44" viewBox="0 0 53 44" fill="none" xmlns="http://www.w3.org/2000/svg">
<path fill-rule="evenodd" clip-rule="evenodd" d="M28.0411 31.5994C28.0411 31.9017 28.137 32.1816 28.2999 32.4102C29.2108 32.1993 30.0727 31.8153 30.8386 31.279V14.9754L36.0536 11.9645L37.2895 14.1051L41.1568 7.40688H33.4223L34.6582 9.54752L28.8294 12.9127C28.3628 13.1395 28.0412 13.618 28.0412 14.1717V31.5993L28.0411 31.5994Z" fill="#FB695B"/>
<path fill-rule="evenodd" clip-rule="evenodd" d="M28.0412 31.5996C28.0412 31.9017 28.1371 32.1816 28.3001 32.4103C28.7379 32.3091 29.1654 32.1675 29.5771 31.9873V14.2213L33.5637 11.9197L35.4117 10.8528L36.441 12.6357L39.4597 7.40709H33.4222L34.6581 9.54774L28.8295 12.9129C28.3628 13.1397 28.0412 13.6182 28.0412 14.1719V31.5997V31.5996Z" fill="#FD7A6E"/>
<path fill-rule="evenodd" clip-rule="evenodd" d="M28.0412 31.5995C28.0412 31.9538 27.9093 32.2773 27.6921 32.5238C27.3492 32.573 26.9987 32.5986 26.6423 32.5986C26.2858 32.5986 25.9353 32.573 25.5926 32.5238C25.3672 32.2687 25.2431 31.9399 25.2435 31.5995V6.69835H22.7751L26.6424 7.62939e-05L30.5097 6.69835H28.0412V31.5996V31.5995Z" fill="#34BA82"/>
<path fill-rule="evenodd" clip-rule="evenodd" d="M28.0412 31.5994C28.0412 31.9537 27.9093 32.2772 27.6921 32.5237C27.5582 32.5429 27.423 32.5586 27.2868 32.5704C27.1513 32.5586 27.0162 32.543 26.8816 32.5237C26.6562 32.2686 26.5321 31.9398 26.5325 31.5994V6.69827H24.0641L27.2868 1.11634L30.5095 6.69827H28.041V31.5994H28.0412Z" fill="#4AC994"/>
<path fill-rule="evenodd" clip-rule="evenodd" d="M25.2435 31.5994C25.2435 31.9016 25.1476 32.1815 24.9847 32.4102C24.0737 32.1994 23.2119 31.8153 22.446 31.279V14.9754L17.231 11.9645L15.9951 14.1051L12.1278 7.40688H19.8624L18.6265 9.54752L24.4553 12.9127C24.9219 13.1395 25.2435 13.618 25.2435 14.1717V31.5994Z" fill="#FAD51B"/>
<path fill-rule="evenodd" clip-rule="evenodd" d="M25.2435 31.5996C25.2435 31.9017 25.1476 32.1816 24.9846 32.4103C24.5468 32.3091 24.1193 32.1675 23.7076 31.9873V14.2213L19.721 11.9197L17.873 10.8528L16.8437 12.6357L13.825 7.40709H19.8625L18.6265 9.54774L24.4552 12.9129C24.9218 13.1397 25.2435 13.6182 25.2435 14.1719V31.5997V31.5996Z" fill="#FFE54E"/>
<path fill-rule="evenodd" clip-rule="evenodd" d="M52.9999 33.2319C52.691 24.7601 33.7879 24.7601 33.4788 33.2319V37.7969H52.9999V33.2319Z" fill="#FB695B"/>
<path fill-rule="evenodd" clip-rule="evenodd" d="M52.9999 33.2319C52.8604 29.4055 48.9275 27.3079 44.628 26.938C40.3286 27.3079 36.3956 29.4055 36.256 33.2319V37.7969H52.9998V33.2319H52.9999Z" fill="#FD7A6E"/>
<path d="M46.8809 26.0778C48.8963 24.0624 48.8963 20.7948 46.8809 18.7794C44.8655 16.764 41.5979 16.764 39.5825 18.7794C37.5671 20.7948 37.5672 24.0624 39.5825 26.0778C41.5979 28.0932 44.8655 28.0932 46.8809 26.0778Z" fill="#F0CD9C"/>
<path fill-rule="evenodd" clip-rule="evenodd" d="M44.6281 27.3984C46.8038 26.7919 48.4002 24.7959 48.4002 22.4269C48.4002 20.0578 46.8039 18.0618 44.6281 17.4553C42.4524 18.0618 40.856 20.0578 40.856 22.4269C40.856 24.7959 42.4524 26.7919 44.6281 27.3984Z" fill="#F7D8AC"/>
<path fill-rule="evenodd" clip-rule="evenodd" d="M19.8058 33.2318C19.4968 24.7601 0.593781 24.7601 0.284668 33.2318V37.7968H19.8058V33.2318Z" fill="#FAD51B"/>
<path fill-rule="evenodd" clip-rule="evenodd" d="M19.8058 33.2318C19.6663 29.4055 15.7333 27.3078 11.4339 26.9379C7.13442 27.3078 3.20156 29.4055 3.06195 33.2318V37.7968H19.8059V33.2318H19.8058Z" fill="#FFE54E"/>
<path d="M12.7651 26.8114C15.1895 25.3129 15.9401 22.1327 14.4416 19.7082C12.943 17.2838 9.76281 16.5332 7.33836 18.0317C4.9139 19.5303 4.1633 22.7105 5.66184 25.1349C7.16039 27.5594 10.3406 28.31 12.7651 26.8114Z" fill="#F0CD9C"/>
<path fill-rule="evenodd" clip-rule="evenodd" d="M11.4339 27.3984C13.6096 26.7919 15.2061 24.7959 15.2061 22.4269C15.2061 20.0578 13.6097 18.0618 11.4339 17.4553C9.25826 18.0618 7.6618 20.0578 7.6618 22.4269C7.6618 24.7959 9.25826 26.7919 11.4339 27.3984Z" fill="#F7D8AC"/>
<path fill-rule="evenodd" clip-rule="evenodd" d="M36.4029 39.4214C36.0939 30.9496 17.1908 30.9496 16.8817 39.4214V43.9864H36.4029V39.4214Z" fill="#4677D5"/>
<path fill-rule="evenodd" clip-rule="evenodd" d="M36.4029 39.4214C36.2633 35.5951 32.3304 33.4974 28.031 33.1275C23.7315 33.4974 19.7987 35.5951 19.6591 39.4214V43.9864H36.403V39.4214H36.4029Z" fill="#5C85DA"/>
<path d="M28.9448 33.2399C31.4939 31.965 32.527 28.865 31.2521 26.3158C29.9772 23.7666 26.8772 22.7336 24.328 24.0085C21.7789 25.2833 20.7458 28.3833 22.0207 30.9325C23.2956 33.4817 26.3956 34.5148 28.9448 33.2399Z" fill="#F0CD9C"/>
<path fill-rule="evenodd" clip-rule="evenodd" d="M28.031 33.5882C30.2067 32.9817 31.8031 30.9857 31.8031 28.6167C31.8031 26.2476 30.2068 24.2516 28.031 23.6451C25.8553 24.2516 24.2589 26.2476 24.2589 28.6167C24.2589 30.9857 25.8553 32.9817 28.031 33.5882Z" fill="#F7D8AC"/>
</svg>
